<svg height="512" viewBox="0 0 270.93332 135.46667" width="1024" xmlns="http://www.w3.org/2000/svg"><g transform="translate(0 -161.53332)"><path d="m-8.181101 160.42851h284.98398v145.09071h-284.98398z" fill="#ffb4c8"/><path d="m-2.1395946 171.41994c-2.1733631-3.26004-14.3751824-8.64878 11.3419024-6.18565 14.5135702.10148 37.2910252-2.20216 51.2613452 2.66746 6.03301 4.92925 12.448006 17.77861 11.729316 26.77995 1.72544 18.99001 2.93632 38.18977 10.016372 55.96167 14.088151 4.44083 76.164129 11.30505 90.964579 11.38867l117.57991 42.28117-10.26567 4.46606h-111.92545c-182.688484-.26553 7.56118.43381-175.1273141.16828z" fill="#20d520"/><path d="m-6.3842965 166.6231c-2.55991.0198 20.7253325.32331 42.0542995-.32769 4.037867-.20435 4.037867-.20435 7.253828 1.64273 20.086191 3.14581 10.73007 30.82805 15.829101 45.72534 2.31615 11.738 5.42948 17.2922 10.91565 24.89558 3.26187 7.27891 10.35481 8.86154 17.26231 10.7199 12.50448 2.66962 11.965459 5.40153 24.379098 7.41425 7.21775 2.33297 14.11014 4.93236 13.05902 14.03623 31.25642 19.97307 134.76512 21.37104 166.38482 33.58377l-17.00476 32.21643c-6.40427 12.13324-152.24457-20.05586-153.60293-43.24188-.17677-3.01731-3.22252-1.11875-6.11773-.0633-2.8952 1.05543-8.42508 3.68329-21.925739 9.37126-14.48134-1.00235-20.794359-2.45432-34.901209-4.5446-5.465851-2.59943-71.681511 6.31004-47.390885-23.80093.56567-18.22708-8.44675-23.51452-8.19144-41.84294-1.01599-10.44687-.38397-29.35881-2.63969-39.25164-14.610105-14.4161-12.762121-13.47555-5.3198542-14.23496z" fill="#cdf3ff"/><g fill="#fff" stroke="#fff"><path d="m240.73957 324.80611c1.21562.36678 2.19604-.2702 3.29636-1.03901.2528-.21997 1.03879-.7569.75841-.65985-.31025.10735-.58027.96028-.85119.69197-.24072-.23838.43611-.58266.63715-.90393.57677-.92171 1.00454-1.99808 1.43949-3.09557.60628-1.75885 1.2648-3.46488 1.94653-5.14817.48129-1.19528 1.01866-2.32224 1.60442-3.38553.68816-1.09382 1.68498-1.76315 2.50492-2.3992.24728-.19179.88012-.0556 1.14006-.011 1.51012.31269 3.03503.46222 4.54701.0711.49054-.12696.9723-.33171 1.45844-.4976.49462-.22572.98925-.45146 1.48387-.6772 0 0-1.26955 1.58809-1.26955 1.58809-.49881.22416-.99759.44832-1.49639.67247-.50487.17748-1.00527.39289-1.51463.53234-1.58573.43414-3.1921.33521-4.7877.14982-.3006-.0188-.48738-.0544-.77995.0188-.11221.0277-.42321.23513-.33172.12589.43396-.51834.92264-.90326 1.37662-1.37397.0876-.091-.19037.13937-.27665.23343-.0882.0961-.16241.22289-.24358.33432-.61243 1.05277-1.17233 2.17619-1.67154 3.37845-.70093 1.69711-1.38596 3.41004-2.00877 5.18712-.43917 1.1179-.87079 2.22511-1.44172 3.18378-1.01777 1.70911-2.36044 2.73965-3.64749 3.81456-.26418.1771-.52355.37429-.79249.53129-.89189.52061-1.82385.75308-2.76794.57358 0 0 1.68803-1.89429 1.68803-1.89429z" stroke-width="1.36537"/><path d="m219.3911 317.46906c1.21562.36678 2.19604-.2702 3.29636-1.03901.2528-.21997 1.03879-.7569.75841-.65985-.31025.10735-.58027.96028-.85119.69197-.24072-.23838.43611-.58266.63715-.90393.57677-.92171 1.00454-1.99808 1.43949-3.09557.60628-1.75885 1.2648-3.46488 1.94653-5.14817.48129-1.19528 1.01866-2.32224 1.60442-3.38553.68816-1.09382 1.68498-1.76315 2.50492-2.3992.24728-.19179.88012-.0556 1.14006-.011 1.51012.31269 3.03503.46222 4.54701.0711.49054-.12696.9723-.33171 1.45844-.4976.49462-.22572.98925-.45146 1.48387-.6772 0 0-1.26955 1.58809-1.26955 1.58809-.49881.22416-.99759.44832-1.49639.67247-.50487.17748-1.00527.39289-1.51463.53234-1.58573.43414-3.1921.33521-4.7877.14982-.3006-.0188-.48738-.0544-.77995.0188-.11221.0277-.42321.23513-.33172.12589.43396-.51834.92264-.90326 1.37662-1.37397.0876-.091-.19037.13937-.27665.23343-.0882.0961-.16241.22289-.24358.33432-.61243 1.05277-1.17233 2.17619-1.67154 3.37845-.70093 1.69711-1.38596 3.41004-2.00877 5.18712-.43917 1.1179-.87079 2.22511-1.44172 3.18378-1.01777 1.70911-2.36044 2.73965-3.64749 3.81456-.26418.1771-.52355.37429-.79249.53129-.89189.52061-1.82385.75308-2.76794.57358 0 0 1.68803-1.89429 1.68803-1.89429z" stroke-width="1.36537"/><path d="m184.15798 308.18421c1.12167.33349 2.02631-.24568 3.04159-.94472.23326-.2.9585-.68821.69979-.59996-.28627.0976-.53542.87313-.7854.62917-.22212-.21675.4024-.52978.5879-.8219.53219-.83806.9269-1.81674 1.32823-2.81463.55942-1.59923 1.16705-3.15043 1.79609-4.68096.44409-1.0868.93992-2.11149 1.48041-3.07828.63497-.99455 1.55475-1.60314 2.31132-2.18146.22816-.17439.81209-.0506 1.05194-.01 1.3934.28432 2.80045.42028 4.19557.0647.45263-.11544.89715-.30161 1.34572-.45244.45639-.20524.91279-.41049 1.36918-.61575 0 0-1.17143 1.44397-1.17143 1.44397-.46025.20382-.92048.40763-1.38073.61144-.46585.16137-.92757.35723-1.39756.48403-1.46317.39474-2.94539.30479-4.41766.13622-.27737-.0171-.44971-.0495-.71967.0171-.10354.0252-.3905.2138-.30608.11447.40042-.4713.85133-.82129 1.27022-1.24928.0808-.0827-.17566.12672-.25527.21225-.0814.0874-.14986.20266-.22475.30398-.5651.95722-1.08172 1.97869-1.54235 3.07184-.64675 1.54309-1.27884 3.10057-1.85351 4.71637-.40523 1.01645-.80349 2.02317-1.33029 2.89484-.93911 1.554-2.178 2.49102-3.36558 3.46838-.24376.16102-.48308.34032-.73123.48307-.82296.47336-1.68289.68474-2.55401.52153 0 0 1.55756-1.72238 1.55756-1.72238z" stroke-width="1.250615"/><path d="m167.00378 304.80409c1.12167.33349 2.02631-.24568 3.04159-.94472.23326-.2.9585-.68821.69979-.59996-.28627.0976-.53542.87313-.7854.62917-.22212-.21675.4024-.52978.5879-.8219.53219-.83806.9269-1.81674 1.32823-2.81463.55942-1.59923 1.16705-3.15043 1.79609-4.68096.44409-1.0868.93992-2.11149 1.48041-3.07828.63497-.99455 1.55475-1.60314 2.31132-2.18146.22816-.17439.81209-.0506 1.05194-.01 1.3934.28432 2.80045.42028 4.19557.0647.45263-.11544.89715-.30161 1.34572-.45244.45639-.20524.91279-.41049 1.36918-.61575 0 0-1.17143 1.44397-1.17143 1.44397-.46025.20382-.92048.40763-1.38073.61144-.46585.16137-.92757.35723-1.39756.48403-1.46317.39474-2.94539.30479-4.41766.13622-.27737-.0171-.44971-.0495-.71967.0171-.10354.0252-.3905.2138-.30608.11447.40042-.4713.85133-.82129 1.27022-1.24928.0808-.0827-.17566.12672-.25527.21225-.0814.0874-.14986.20266-.22475.30398-.5651.95722-1.08172 1.97869-1.54235 3.07184-.64675 1.54309-1.27884 3.10057-1.85351 4.71637-.40523 1.01645-.80349 2.02317-1.33029 2.89484-.93911 1.554-2.178 2.49102-3.36558 3.46838-.24376.16102-.48308.34032-.73123.48307-.82296.47336-1.68289.68474-2.55401.52153 0 0 1.55756-1.72238 1.55756-1.72238z" stroke-width="1.250615"/><path d="m154.69866 296.70753c1.02916.24238 1.85918-.17856 2.79073-.68662.21402-.14536.87944-.50019.64207-.43605-.26266.0709-.49126.63459-.72062.45728-.2038-.15753.36921-.38504.53941-.59735.4883-.6091.85045-1.3204 1.21868-2.04566.51328-1.16231 1.0708-2.28972 1.64796-3.4021.40746-.78988.86239-1.53462 1.35831-2.23728.5826-.72283 1.42652-1.16515 2.12069-1.58547.20934-.12675.74511-.0368.96518-.007 1.27847.20664 2.56947.30546 3.84953.047.4153-.0839.82315-.21921 1.23473-.32883.41875-.14917.8375-.29834 1.25625-.44752 0 0-1.07481 1.04947-1.07481 1.04947-.42229.14813-.84456.29626-1.26685.44439-.42743.11728-.85107.25963-1.2823.35179-1.34249.28689-2.70246.22152-4.0533.099-.2545-.0124-.41262-.036-.66032.0124-.095.0183-.35829.15539-.28083.0832.36739-.34254.78111-.59691 1.16545-.90797.0741-.0601-.16117.0921-.23421.15426-.0747.0635-.1375.14729-.20622.22093-.51849.6957-.9925 1.4381-1.41514 2.2326-.59341 1.12151-1.17336 2.25348-1.70064 3.42783-.3718.73875-.73722 1.47043-1.22057 2.10396-.86165 1.12944-1.99836 1.81046-3.088 2.5208-.22365.11703-.44323.24734-.67092.35109-.75508.34404-1.54409.49767-2.34336.37905 0 0 1.4291-1.25182 1.4291-1.25182z" stroke-width="1.021264"/><path d="m141.65835 293.39366c1.02916.24238 1.85918-.17856 2.79073-.68662.21402-.14536.87944-.50019.64207-.43605-.26266.0709-.49126.63459-.72062.45728-.2038-.15753.36921-.38504.53941-.59735.4883-.6091.85045-1.3204 1.21868-2.04566.51328-1.16231 1.0708-2.28972 1.64796-3.4021.40746-.78988.86239-1.53462 1.35831-2.23728.5826-.72283 1.42652-1.16515 2.12069-1.58547.20934-.12675.74511-.0368.96518-.007 1.27847.20664 2.56947.30546 3.84953.047.4153-.0839.82315-.21921 1.23473-.32883.41875-.14917.8375-.29834 1.25625-.44752 0 0-1.07481 1.04947-1.07481 1.04947-.42229.14813-.84456.29626-1.26685.44439-.42743.11728-.85107.25963-1.2823.35179-1.34249.28689-2.70246.22152-4.0533.099-.2545-.0124-.41262-.036-.66032.0124-.095.0183-.35829.15539-.28083.0832.36739-.34254.78111-.59691 1.16545-.90797.0741-.0601-.16117.0921-.23421.15426-.0747.0635-.1375.14729-.20622.22093-.51849.6957-.9925 1.4381-1.41514 2.2326-.59341 1.12151-1.17336 2.25348-1.70064 3.42783-.3718.73875-.73722 1.47043-1.22057 2.10396-.86165 1.12944-1.99836 1.81046-3.088 2.5208-.22365.11703-.44323.24734-.67092.35109-.75508.34404-1.54409.49767-2.34336.37905 0 0 1.4291-1.25182 1.4291-1.25182z" stroke-width="1.021264"/><path d="m122.08767 288.78319c1.02916.24238 1.85918-.17856 2.79073-.68662.21402-.14536.87944-.50019.64207-.43605-.26266.0709-.49126.63459-.72062.45728-.2038-.15753.36921-.38504.53941-.59735.4883-.6091.85045-1.3204 1.21868-2.04566.51328-1.16231 1.0708-2.28972 1.64796-3.4021.40746-.78988.86239-1.53462 1.35831-2.23728.5826-.72283 1.42652-1.16515 2.12069-1.58547.20934-.12675.74511-.0368.96518-.007 1.27847.20664 2.56947.30546 3.84953.047.4153-.0839.82315-.21921 1.23473-.32883.41875-.14917.8375-.29834 1.25625-.44752 0 0-1.07481 1.04947-1.07481 1.04947-.42229.14813-.84456.29626-1.26685.44439-.42743.11728-.85107.25963-1.2823.35179-1.34249.28689-2.70246.22152-4.0533.099-.2545-.0124-.41262-.036-.66032.0124-.095.0183-.35829.15539-.28083.0832.36739-.34254.78111-.59691 1.16545-.90797.0741-.0601-.16117.0921-.23421.15426-.0747.0635-.1375.14729-.20622.22093-.51849.6957-.9925 1.4381-1.41514 2.2326-.59341 1.12151-1.17336 2.25348-1.70064 3.42783-.3718.73875-.73722 1.47043-1.22057 2.10396-.86165 1.12944-1.99836 1.81046-3.088 2.5208-.22365.11703-.44323.24734-.67092.35109-.75508.34404-1.54409.49767-2.34336.37905 0 0 1.4291-1.25182 1.4291-1.25182z" stroke-width="1.021264"/><path d="m61.635505 291.47482c2.306448 1.23458 4.452725 1.49963 6.878093 1.75488.570494.0247 2.299208.2166 1.711482.0741-.650251-.15767-1.449183.30001-1.905999-.12128-.405852-.37429 1.046563-.11654 1.54514-.21151 1.430447-.27251 2.6118-.78228 3.813956-1.30298 1.745919-.90524 3.579665-1.72836 5.452529-2.51563 1.324359-.56121 2.739335-1.02519 4.231119-1.40156 1.704841-.32054 3.893739-.068 5.720414.0727.550876.0424 1.768446.64217 2.272226.87909 2.90903 1.42169 5.897577 2.72713 9.026245 3.59888 1.0151.28285 2.03653.49784 3.0548.74676 1.05347.20863 2.10694.41725 3.16042.62587 0 0-3.01341.25461-3.01341.25461-1.06129-.21311-2.12258-.42622-3.18385-.63932-1.059088-.25445-2.120918-.47563-3.177268-.76334-3.288575-.89564-6.454756-2.2249-9.572903-3.61345-.592791-.24815-.953177-.42236-1.557499-.59393-.231854-.0658-.914252-.14561-.698619-.15992 1.022469-.0679 2.112973.0115 3.160715-.003.202166-.003-.421534-.0392-.622075-.0327-.205086.007-.391522.048-.587285.072-1.541579.34737-3.000293.79103-4.362491 1.34372-1.91533.78311-3.803865 1.59103-5.588283 2.49763-1.216823.53341-2.415338 1.0643-3.845453 1.37035-2.549522.54559-5.537401.3065-8.428217.14551-.579959-.0671-1.156611-.1148-1.739876-.20139-1.934476-.28723-3.8603-.83137-5.683846-1.70764 0 0 3.940071-.16838 3.940071-.16838z" stroke-width="1.830651"/><path d="m16.885228 284.79676c2.306448 1.23458 4.452725 1.49963 6.878093 1.75488.570494.0247 2.299208.2166 1.711482.0741-.650251-.15767-1.449183.30001-1.905999-.12128-.405852-.37429 1.046563-.11654 1.54514-.21151 1.430447-.27251 2.6118-.78228 3.813956-1.30298 1.745919-.90524 3.579665-1.72836 5.452529-2.51563 1.324359-.56121 2.739335-1.02519 4.231119-1.40156 1.704841-.32054 3.893739-.068 5.720414.0727.550876.0424 1.768446.64217 2.272226.87909 2.90903 1.42169 5.897576 2.72713 9.026246 3.59888 1.0151.28285 2.03653.49784 3.0548.74676 1.05347.20863 2.10694.41725 3.16042.62587 0 0-3.01341.25461-3.01341.25461-1.06129-.21311-2.12258-.42622-3.18385-.63932-1.05909-.25445-2.12092-.47563-3.17727-.76334-3.288574-.89564-6.454755-2.2249-9.572902-3.61345-.592791-.24815-.953177-.42236-1.557499-.59393-.231854-.0658-.914252-.14561-.698619-.15992 1.022469-.0679 2.112973.0115 3.160715-.003.202166-.003-.421534-.0392-.622075-.0327-.205086.007-.391522.048-.587285.072-1.541579.34737-3.000293.79103-4.362491 1.34372-1.91533.78311-3.803865 1.59103-5.588283 2.49763-1.216823.53341-2.415338 1.0643-3.845453 1.37035-2.549522.54559-5.537401.3065-8.428217.14551-.579959-.0671-1.156611-.1148-1.739876-.20139-1.934476-.28723-3.8603-.83137-5.683846-1.70764 0 0 3.940071-.16838 3.940071-.16838z" stroke-width="1.830651"/><path d="m78.891815 274.03827c2.306447 1.23458 4.452724 1.49963 6.878092 1.75488.570494.0247 2.299208.2166 1.711482.0741-.650251-.15767-1.449183.30001-1.905999-.12128-.405852-.37429 1.046563-.11654 1.54514-.21151 1.430447-.27251 2.6118-.78228 3.813956-1.30298 1.745919-.90524 3.579665-1.72836 5.452529-2.51563 1.324359-.56121 2.739335-1.02519 4.231115-1.40156 1.70484-.32054 3.89375-.068 5.72042.0727.55088.0424 1.76845.64217 2.27223.87909 2.90903 1.42169 5.89758 2.72713 9.02624 3.59888 1.0151.28285 2.03653.49784 3.0548.74676 1.05347.20863 2.10695.41725 3.16043.62587 0 0-3.01342.25461-3.01342.25461-1.06128-.21311-2.12257-.42622-3.18385-.63932-1.05909-.25445-2.12091-.47563-3.17727-.76334-3.28857-.89564-6.45475-2.2249-9.5729-3.61345-.59279-.24815-.95317-.42236-1.5575-.59393-.23185-.0658-.91425-.14561-.69862-.15992 1.02247-.0679 2.11298.0115 3.16072-.003.20217-.003-.42153-.0392-.62208-.0327-.20508.007-.39152.048-.58728.072-1.54158.34737-3.0003.79103-4.3625 1.34372-1.915326.78311-3.803861 1.59103-5.588279 2.49763-1.216823.53341-2.415338 1.0643-3.845453 1.37035-2.549522.54559-5.537401.3065-8.428217.14551-.579959-.0671-1.15661-.1148-1.739875-.20139-1.934477-.28723-3.860301-.83137-5.683847-1.70764 0 0 3.940071-.16838 3.940071-.16838z" stroke-width="1.830651"/><path d="m22.498672 271.4381c2.306447 1.23458 4.452724 1.49963 6.878092 1.75488.570494.0247 2.299208.2166 1.711482.0741-.650251-.15767-1.449183.30001-1.905999-.12128-.405852-.37429 1.046563-.11654 1.54514-.21151 1.430447-.27251 2.6118-.78228 3.813956-1.30298 1.745919-.90524 3.579665-1.72836 5.452529-2.51563 1.324359-.56121 2.739335-1.02519 4.231119-1.40156 1.704842-.32054 3.89374-.068 5.720415.0727.550876.0424 1.768446.64217 2.272226.87909 2.90903 1.42169 5.89758 2.72713 9.02624 3.59888 1.0151.28285 2.03653.49784 3.0548.74676 1.05347.20863 2.10695.41725 3.16043.62587 0 0-3.01342.25461-3.01342.25461-1.06128-.21311-2.12257-.42622-3.18385-.63932-1.05909-.25445-2.12091-.47563-3.17727-.76334-3.28857-.89564-6.45475-2.2249-9.572896-3.61345-.592791-.24815-.953177-.42236-1.557499-.59393-.231854-.0658-.914252-.14561-.698619-.15992 1.022467-.0679 2.112973.0115 3.160713-.003.202168-.003-.421534-.0392-.622073-.0327-.205086.007-.391522.048-.587285.072-1.541579.34737-3.000293.79103-4.362492 1.34372-1.91533.78311-3.803865 1.59103-5.588283 2.49763-1.216823.53341-2.415338 1.0643-3.845453 1.37035-2.549522.54559-5.537401.3065-8.428217.14551-.579959-.0671-1.15661-.1148-1.739875-.20139-1.934477-.28723-3.860301-.83137-5.683847-1.70764 0 0 3.940071-.16838 3.940071-.16838z" stroke-width="1.830651"/><path d="m58.01553 260.47738c2.306447 1.23458 4.452724 1.49963 6.878091 1.75488.570494.0247 2.299208.2166 1.711482.0741-.650251-.15767-1.449183.30001-1.905999-.12128-.405852-.37429 1.046563-.11654 1.54514-.21151 1.430447-.27251 2.6118-.78228 3.813956-1.30298 1.745919-.90524 3.579665-1.72836 5.452529-2.51563 1.324359-.56121 2.739335-1.02519 4.231119-1.40156 1.704843-.32054 3.89374-.068 5.720415.0727.550873.0424 1.768448.64217 2.272232.87909 2.909026 1.42169 5.897578 2.72713 9.026239 3.59888 1.015093.28285 2.036529.49784 3.054791.74676 1.053475.20863 2.106955.41725 3.160435.62587 0 0-3.013416.25461-3.013416.25461-1.061287-.21311-2.122571-.42622-3.183857-.63932-1.059091-.25445-2.12091-.47563-3.177266-.76334-3.288568-.89564-6.454755-2.2249-9.572897-3.61345-.592793-.24815-.953178-.42236-1.557501-.59393-.231854-.0658-.91425-.14561-.698619-.15992 1.022468-.0679 2.112973.0115 3.160714-.003.202167-.003-.421535-.0392-.622072-.0327-.205088.007-.391522.048-.587287.072-1.541579.34737-3.000292.79103-4.362491 1.34372-1.91533.78311-3.803865 1.59103-5.588283 2.49763-1.216823.53341-2.415338 1.0643-3.845453 1.37035-2.549522.54559-5.537401.3065-8.428216.14551-.579959-.0671-1.15661-.1148-1.739875-.20139-1.934477-.28723-3.860301-.83137-5.683847-1.70764 0 0 3.940071-.16838 3.940071-.16838z" stroke-width="1.830651"/><path d="m21.721721 257.82335c2.597825.30854 4.692973-.22729 7.04442-.87402.540223-.18502 2.219881-.63671 1.62067-.55506-.662971.0903-1.240004.80779-1.818986.58209-.514392-.20053.932008-.49014 1.361623-.76038 1.232587-.77535 2.146712-1.6808 3.076224-2.60401 1.295615-1.47955 2.70295-2.91467 4.159787-4.33066 1.028529-1.00549 2.17689-1.95349 3.428716-2.84792 1.470572-.92014 3.60084-1.48317 5.353062-2.01821.528421-.16135 1.880849-.0469 2.436336-.01 3.227144.26304 6.485946.38883 9.717067.0597 1.048342-.10677 2.077841-.27905 3.116762-.41857 1.057016-.18989 2.114032-.37978 3.171045-.56967 0 0-2.713088 1.33591-2.713088 1.33591-1.065922.18856-2.131841.37712-3.197762.56568-1.07895.14927-2.148314.3305-3.236847.4478-3.38873.36519-6.821619.282-10.231397.12607-.642462-.0149-1.041558-.0457-1.666836.0149-.239874.0233-.904394.1978-.708831.10584.927321-.43603 1.971664-.75982 2.941811-1.1558.187198-.0764-.40682.11717-.591171.19637-.188532.081-.347054.18748-.520581.28123-1.308766.88559-2.505264 1.83061-3.572133 2.84197-1.497893 1.42761-2.961793 2.86854-4.292758 4.3634-.938531.9404-1.860937 1.87177-3.080984 2.67823-2.175029 1.4377-5.044365 2.30459-7.794842 3.20881-.564506.14897-1.118832.31486-1.693515.44691-1.906016.43795-3.897659.63352-5.915177.48253 0 0 3.607385-1.59351 3.607385-1.59351z" stroke-width="1.830651"/><path d="m13.464365 240.18464c2.597825.30854 4.692973-.22729 7.04442-.87402.540223-.18502 2.219881-.63671 1.62067-.55506-.662971.0903-1.240004.80779-1.818986.58209-.514392-.20053.932008-.49014 1.361623-.76038 1.232587-.77535 2.146712-1.6808 3.076224-2.60401 1.295615-1.47955 2.70295-2.91467 4.159787-4.33066 1.028529-1.00549 2.17689-1.95349 3.428716-2.84792 1.470572-.92014 3.60084-1.48317 5.353062-2.01821.528421-.16135 1.880849-.0469 2.436336-.01 3.227144.26304 6.485946.38883 9.717067.0597 1.048342-.10677 2.077841-.27905 3.116762-.41857 1.057016-.18989 2.114032-.37978 3.171045-.56967 0 0-2.713088 1.33591-2.713088 1.33591-1.065922.18856-2.131841.37712-3.197762.56568-1.07895.14927-2.148314.3305-3.236847.4478-3.38873.36519-6.821619.282-10.231397.12607-.642462-.0149-1.041558-.0457-1.666836.0149-.239874.0233-.904394.1978-.708831.10584.927321-.43603 1.971664-.75982 2.941811-1.1558.187198-.0764-.40682.11717-.591171.19637-.188532.081-.347054.18748-.520581.28123-1.308766.88559-2.505264 1.83061-3.572133 2.84197-1.497893 1.42761-2.961793 2.86854-4.292758 4.3634-.938531.9404-1.860937 1.87177-3.080984 2.67823-2.175029 1.4377-5.044365 2.30459-7.794842 3.20881-.564506.14897-1.118832.31486-1.693515.44691-1.906016.43795-3.897659.63352-5.915177.48253 0 0 3.607385-1.59351 3.607385-1.59351z" stroke-width="1.830651"/><path d="m11.599298 222.9359c2.597825.30854 4.692973-.22729 7.04442-.87402.540223-.18502 2.219881-.63671 1.62067-.55506-.662971.0903-1.240004.80779-1.818986.58209-.514392-.20053.932008-.49014 1.361623-.76038 1.232587-.77535 2.146712-1.6808 3.076224-2.60401 1.295615-1.47955 2.70295-2.91467 4.159787-4.33066 1.028529-1.00549 2.17689-1.95349 3.428716-2.84792 1.470572-.92014 3.60084-1.48317 5.353062-2.01821.528421-.16135 1.880849-.0469 2.436336-.01 3.227144.26304 6.485946.38883 9.717067.0597 1.048342-.10677 2.077841-.27905 3.116762-.41857 1.057016-.18989 2.114032-.37978 3.171045-.56967 0 0-2.713088 1.33591-2.713088 1.33591-1.065922.18856-2.131841.37712-3.197762.56568-1.07895.14927-2.148314.3305-3.236847.4478-3.38873.36519-6.821619.282-10.231397.12607-.642462-.0149-1.041558-.0457-1.666836.0149-.239874.0233-.904394.1978-.708831.10584.927321-.43603 1.971664-.75982 2.941811-1.1558.187198-.0764-.40682.11717-.591171.19637-.188532.081-.347054.18748-.520581.28123-1.308766.88559-2.505264 1.83061-3.572133 2.84197-1.497893 1.42761-2.961793 2.86854-4.292758 4.3634-.938531.9404-1.860937 1.87177-3.080984 2.67823-2.175029 1.4377-5.044365 2.30459-7.794842 3.20881-.564505.14897-1.118832.31486-1.693515.44691-1.906016.43795-3.897659.63352-5.9151766.48253 0 0 3.6073846-1.59351 3.6073846-1.59351z" stroke-width="1.830651"/><path d="m204.03797 313.72266c1.21562.36678 2.19604-.2702 3.29636-1.03901.2528-.21997 1.03879-.7569.75841-.65985-.31025.10735-.58027.96028-.85119.69197-.24072-.23838.43611-.58266.63715-.90393.57677-.92171 1.00454-1.99808 1.43949-3.09557.60628-1.75885 1.2648-3.46488 1.94653-5.14817.48129-1.19528 1.01866-2.32224 1.60442-3.38553.68816-1.09382 1.68498-1.76315 2.50492-2.3992.24728-.19179.88012-.0556 1.14006-.011 1.51012.31269 3.03503.46222 4.54701.0711.49054-.12696.9723-.33171 1.45844-.4976.49462-.22572.98925-.45146 1.48387-.6772 0 0-1.26955 1.58809-1.26955 1.58809-.49881.22416-.99759.44832-1.49639.67247-.50487.17748-1.00527.39289-1.51463.53234-1.58573.43414-3.1921.33521-4.7877.14982-.3006-.0188-.48738-.0544-.77995.0188-.11221.0277-.42321.23513-.33172.12589.43396-.51834.92264-.90326 1.37662-1.37397.0876-.091-.19037.13937-.27665.23343-.0882.0961-.16241.22289-.24358.33432-.61243 1.05277-1.17233 2.17619-1.67154 3.37845-.70093 1.69711-1.38596 3.41004-2.00877 5.18712-.43917 1.1179-.87079 2.22511-1.44172 3.18378-1.01777 1.70911-2.36044 2.73965-3.64749 3.81456-.26418.1771-.52355.37429-.79249.53129-.89189.52061-1.82385.75308-2.76794.57358 0 0 1.68803-1.89429 1.68803-1.89429z" stroke-width="1.36537"/></g><path d="m204.13957 304.61198c.29737-.39471.66354-.73245 1.04402-1.0452.45698-.31938 1.01363-.38841 1.5365-.18374.51699.20237 1.02469.42773 1.53702.64159.59758.32373 1.10547.78365 1.52871 1.31127.26159.38405.42281.83289.34301 1.30231-.0162.0955-.0474.18783-.0711.28174-.18273.63788-.55317 1.07856-1.05069 1.49962-.45713.35094-.98394.55474-1.56451.54416-.11225-.002-.22358-.0195-.33536-.0293-.78857-.17293-1.53223-.54386-2.25013-.89399-.13483-.0658-.25183-.16352-.3725-.2527-.25046-.18518-.48619-.3895-.72934-.58416-.58063-.46429-1.11775-.97946-1.5763-1.56485-.38509-.56822-.62104-1.21589-.80513-1.87251-.15042-.51906-.16541-1.01855-.0993-1.5503.13885-.7899.62667-1.31304 1.18104-1.85227.56402-.56461 1.27824-.90242 2.07488-.96682.15042-.0122.30179-.006.45268-.009 1.08477.0661 2.03244.52189 3.01257.98227.24656.11582.78945.50553 1.00273.65295.66668.42848 1.27531.93842 1.93627 1.37477.33266.21962.46893.29525.80455.49425-.31127-.10049.93891.43156.70121.33029-.2943-.12537-.59762-.23183-.88179-.37873-.0923-.0478.19915.0619.30169.0788.26636.044.33781.0174.60115-.0129.66785-.18482 1.26525-.56644 1.76651-1.0383.53604-.61747.76093-1.41962.98357-2.18942.21605-.81165.36384-1.63907.44849-2.4742.008-.37246.1417-.93371-.005-1.28784-.0237-.0571-.0644-.10561-.0966-.15842-.0498-.0565-.0937-.11847-.14947-.16906-.12046-.11009-.31425-.23269-.45934-.30222-.0901-.0432-.36975-.1517-.27873-.11045.92728.42026 1.27065.48659.63796.33274-.6937-.13545-1.2461.11556-1.83949.4431-.43351.26825-.85907.56483-1.22228.92536-.1876.18619-.31935.35741-.48671.5613-.39159.48649-.68852 1.03944-.93041 1.61294-.17597.46104-.38685.90745-.63238 1.33526-.28469.46918-.54941.94886-.84702 1.41019-.37524.6279-.78992 1.23062-1.1831 1.84707-.5287.85583-1.06163 1.70806-1.61635 2.54733-.60309.8527-1.20965 1.70301-1.81516 2.55408-.21961.3169-3.42313-.11831-3.63184.20577l1.78901.23261-1.78901-.23261c.23066-.31401 2.24692-.39781 2.46942-.71767.62156-.83783 1.22451-1.68939 1.82164-2.54463.54766-.84182 1.08434-1.69012 1.6067-2.54791.37541-.62481.74731-1.25102 1.12304-1.87561.29547-.45935.5704-.92978.84086-1.40419.23619-.4278.44649-.86855.62948-1.32186.26223-.5795.57184-1.13801.97552-1.63268.17781-.21892.29716-.37656.49593-.57772.36625-.37069.80088-.66744 1.23544-.95086.58971-.35216 1.15199-.64526 1.86179-.54185.80201.16533.29363.0434 1.79572.64924.35603.14361.6788.35654.89395.68005.0271.0637.062.12461.0811.19111.11867.41298-.0304.89708-.0497 1.31405-.11488.83522-.26701 1.66468-.49946 2.47628-.16239.57841-.30548 1.19199-.58219 1.72985-.12079.23475-.21709.34034-.37646.54662-.52032.48198-1.13323.86613-1.80015 1.11129-.24902.0432-.3727.0824-.62863.055-.10675-.0114-.21396-.0318-.31464-.0691-.74794-.27736-1.49216-.56003-2.18844-.94885-.31125-.1923-.46853-.28481-.77669-.49556-.64556-.44149-1.24548-.94707-1.90743-1.36546-.17605-.11671-.34848-.23902-.52805-.35018-.21962-.13593-1.29695-.69421.16492-.0408.14358.0642-.29635-.10642-.44763-.14957-.41595-.11866-.47357-.10934-.89897-.16226-.14944-.002-.29907-.0128-.44838-.006-.77637.036-1.48633.33755-2.03073.89492-.50981.51049-1.00309 1.04291-1.10066 1.78906-.0476.50309-.0229 1.00603.10356 1.49768.18261.64394.41619 1.27975.81928 1.82178.45837.56292.97652 1.07199 1.54381 1.52576.17642.14096.55117.44518.73541.57314.12469.0865.53555.26295.38514.24281-.28589-.0383-.53894-.20608-.81167-.29996-.22266-.0766.85574.34853.66815.2294.10939.0154.218.0383.3282.046.55945.0389 1.07249-.13564 1.51894-.46843.48905-.39998.82968-.80807 1.00559-1.42578.019-.0881.0447-.17495.0571-.2642.0613-.44135-.10798-.85137-.36365-1.20238-.42852-.50448-.92042-.95478-1.52142-1.24646.28362.11206.56922.21922.85086.33618.10885.0452-.21759-.0935-.33221-.12081-.38814-.0925-.79317-.0168-1.12267.19958-.36397.29473-.72494.61756-.96674 1.02373l-1.27983-.54559z" fill="#fffbff" stroke="#ffa5ff" stroke-width="1.465"/><path d="m133.23816 293.43421c-1.18492-.10977-2.35991-.2586-3.52058-.49809-1.14014-.28113-2.31856-.49418-3.3785-.97283-.82537-.44954-1.22022-1.21018-1.43614-2.01175-.10937-.6907-.19848-1.49811.13971-2.15821.0658-.12851.16662-.24074.24994-.36112 1.56143-1.62217 3.69838-2.08572 5.89061-2.37182 1.23519-.13505 2.48251-.21775 3.72226-.0998 1.20946.21558 2.39075.55025 3.54684.9278.96483.32967 1.83875.82624 2.78588 1.18937 1.33177.54175 2.79845.71766 4.23459.91084 1.68773.15924 3.36304.38258 5.03433.64143 1.13026.16279 2.29955.31943 3.43648.13013.38702-.10385.37127-.0809.73147-.25404.11738-.0564.4595-.24113.34294-.1834-4.04801 2.0047-2.58457 1.38277-1.67837.72248.48145-.35921.94031-.73686 1.21883-1.24152.2127-.53371.22475-.8078-.0719-1.31144-.43769-.59576-1.054-1.07493-1.66716-1.52809-.63737-.54247-1.43117-.89311-2.15151-1.33262-.65431-.46259-1.38825-.62887-2.20195-.7138-.78815-.0662-1.5801-.0527-2.37049-.0459 0 0 2.52711-1.61866 2.52711-1.61866.78695.006 1.57538.0281 2.35861.0979.93222.11958 1.52926.30087 2.28022.81785.74583.42786 1.5197.82267 2.18456 1.35065.63553.48276 1.25598 1.0002 1.73842 1.6081.11015.1723.26016.38016.3184.5754.091.30489-.0434.64426-.0911.94387-.23925.56685-.6845.98885-1.20606 1.37489-1.14246.89028-1.9506 1.17259-3.59538 2.01307-.35344.1806-.73846.30324-1.14227.35812-1.13742.0953-2.27099-.0842-3.38786-.26467-1.6684-.25765-3.34302-.47143-5.02641-.63814-1.47946-.18978-2.98092-.39567-4.36329-.92066-.93307-.37658-1.81141-.85425-2.77301-1.17729-1.12928-.37939-2.28477-.73723-3.48791-.87598-1.22173-.0794-2.44523-.0172-3.65741.13973-.63397.0935-1.28247.17829-1.89431.35957-.18911.056-.71974.29728-.55428.19904 2.85858-1.69724 2.61572-1.53485 1.79334-.86063-.0943.0966-.20699.1813-.2827.28982-.40871.58579-.31794 1.37828-.22159 2.0209.1918.73446.51875 1.41993 1.30493 1.80297 1.03145.44044 2.13075.73721 3.24341.97338 1.21334.21617 2.43363.34732 3.67124.38905 0 0-2.59389 1.60417-2.59389 1.60417z" fill="#ffa5ff" stroke="#ffa5ff" stroke-width="1.560396"/><path d="m2.1600418 185.39026c2.597824.30854 4.6929719-.22729 7.0444201-.87402.5402233-.18502 2.2198811-.63671 1.6206701-.55506-.662971.0903-1.2400039.80779-1.8189864.58209-.5143917-.20053.9320082-.49014 1.3616234-.76038 1.232587-.77535 2.146712-1.6808 3.076224-2.60401 1.295615-1.47955 2.70295-2.91467 4.159787-4.33066 1.028529-1.00549 2.17689-1.95349 3.428716-2.84792 1.470572-.92014 3.60084-1.48317 5.353063-2.01821.528418-.16135 1.880848-.0469 2.436335-.01 3.227143.26304 6.485946.38883 9.717066.0597 1.048344-.10677 2.077843-.27905 3.116763-.41857 1.057015-.18989 2.114031-.37978 3.171044-.56967 0 0-2.713087 1.33591-2.713087 1.33591-1.065921.18856-2.131842.37712-3.197764.56568-1.078948.14927-2.148313.3305-3.236845.4478-3.38873.36519-6.821619.282-10.231397.12607-.642463-.0149-1.041558-.0457-1.666836.0149-.239874.0233-.904394.1978-.708831.10584.927321-.43603 1.971664-.75982 2.94181-1.1558.187198-.0764-.406819.11717-.591171.19637-.188532.081-.347054.18748-.520581.28123-1.308765.88559-2.505263 1.83061-3.572132 2.84197-1.497894 1.42761-2.961793 2.86854-4.292758 4.3634-.938531.9404-1.860937 1.87177-3.080984 2.67823-2.175029 1.4377-5.0443648 2.30459-7.7948425 3.20881-.5645055.14897-1.1188322.31486-1.693516.44691-1.906016.43795-3.89765817.63352-5.9151756.48253 0 0 3.6073849-1.59351 3.6073849-1.59351z" fill="#fff" stroke="#fff" stroke-width="1.830651"/><path d="m166.15607 308.02c-.22244-1.21399-.18104-2.44745-.0841-3.67118.1305-1.36927.47635-2.68423.96718-3.96374.34496-.82971.79036-1.70312 1.56582-2.21547.12099-.0799.2583-.1319.38746-.19783 1.42176-.28569 3.17242-.71689 4.3867.18705.50395.37515.82353.90971 1.14273 1.43471.43976.83556.80357 1.72953 1.01813 2.65201.12314.52944.1399.83361.1973 1.36811.0142.97677-.0652 2.02938-.62034 2.87035-.0995.15081-.22669.28145-.34003.42217-.54415.528-1.22506 1.03571-2.01964 1.05464-1.15286.0275-2.30627.0224-3.4594.0336-.49995-.25263-.89543-.65312-1.27937-1.05207-.15393-.15994-.45056-.45729-.5511-.68944-.0285-.0659-.0186-.14235-.028-.21352 1.1152-.0693 2.22858-.23503 3.34561-.20793.13253.003.17825.19631.26614.29557.38354.43312.75038.87739 1.15557 1.29074.1068.0513.20266.13907.32016.15432.12021.0156.4788-.061.35767-.0661-.88858-.0381-1.78978.10809-2.66799-.0326-.18044-.029.30575-.20247.44236-.32383.37275-.33116-.57144-1.53672-.26541-1.93341 1.58454-2.26889 4.31653-3.69465 5.79965-6.03123 1.76287-2.8999 3.40458-5.87096 4.98108-8.87554.57168-1.09824 1.12123-2.20766 1.67999-3.31245l3.01249.0525c-.6191 1.10801-1.2509 2.20892-1.87864 3.31207-1.69181 2.97775-3.37454 5.96126-5.1585 8.88533-1.3793 2.33472-2.77991 4.65549-4.26619 6.92409-.36162.542-.42558.68695-.84654 1.14692-.13071.14281-.22441.3698-.41442.40694-1.14632.2241-2.32065.27606-3.48596.35557-.13022.009-.26241-.0366-.3807-.0917-.12155-.0564-.21629-.1582-.32442-.23734-.28221-.30755-.54022-.63951-.82909-.94047-1.04635-1.09019-.25179-3.9829 4.24683-4.38527-.10579.0821-1.97781 3.57281-1.80744 3.80288.40999.5534.9859 1.02221 1.64588 1.22526-7.303.38517-2.33695.20526-1.86691.063.4533-.13716.84557-.43628 1.20295-.73357.11363-.12089.23996-.23097.34086-.36266.57949-.75632-.89956-1.92133-.8946-2.83676-.0481-.5129 1.62733-2.04634 1.37926-1.1581-.21176-.89681-2.03033 2.23267-2.48373 1.43375-.33391-.48702.80382-4.95773.27703-5.25956-.13326-.0762-.57748-.15053-.42597-.17559 1.10422-.18271 3.74384-.1944 2.19008-.18234-.13063.0393-.26892.0589-.39187.11814-.80659.38786-.39107 2.82396-.72801 3.60075-.50448 1.24536-.7804.55734-.92126 1.8986-.0881 1.20076-1.10759 2.84437-.70984 4.00122l-3.17946.15936z" fill="#ffa5ff"/><path d="m.95164031 191.18653c-.192832-1.0524-.1569409-2.12169-.072929-3.18255.1131358-1.18702.41294689-2.32696.83845619-3.43616.2990435-.71928.6851622-1.47644 1.3574051-1.9206.1048872-.0693.2239278-.11434.33589-.1715 1.232526-.24766 2.7501759-.62147 3.8028406.16216.436876.32522.713913.78862.990633 1.24375.381226.72435.696612 1.49933.882615 2.29902.1067563.45898.1212863.72267.1710383 1.18603.0123.84676-.05656 1.75927-.5377733 2.48831-.08629.13074-.196514.24399-.29477.36598-.471725.45771-1.062006.89786-1.750831.91427-.9994148.0238-1.9993032.0194-2.9989532.0291-.4334128-.21901-.7762529-.56619-1.1090907-.91204-.1334381-.13865-.3905849-.39643-.4777499-.59768-.024732-.0571-.016165-.1234-.024246-.1851.9667721-.0601 1.9319627-.20375 2.9003167-.18025.1148924.003.1545284.17017.2307202.25622.3324906.37548.6505035.76062 1.0017649 1.11894.09258.0445.1756826.12057.277545.13379.104213.0135.41507-.0529.31006-.0573-.7703122-.0329-1.5515615.0937-2.3128759-.0283-.1564301-.025.2650492-.17552.3834774-.28073.3231394-.28709.5228086-.58445.7881081-.92834 1.3736454-1.96691 2.7238134-3.95064 4.0095307-5.97622 1.5282325-2.51392 2.9514415-5.08955 4.3181045-7.69422.495594-.95206.971995-1.91382 1.456387-2.87156 0 0 2.611534.0455 2.611534.0455-.536697.96055-1.084405 1.91493-1.628592 2.87124-1.466633 2.58143-2.925395 5.16784-4.471916 7.70272-1.195715 2.02397-2.4099055 4.03585-3.6983658 6.00249-.313491.46986-.368935.59553-.733867.99428-.113312.1238-.194544.32057-.359263.35277-.9937428.19428-2.0117769.23932-3.0219824.30825-.1128886.008-.2274807-.0317-.330024-.0795-.1053773-.0488-.1875068-.13713-.2812441-.20574-.244645-.26661-.468318-.55439-.718736-.81529-.9070868-.94509-1.86055089-.39322 2.0393131-.74204-.09171.0712-.0723.0377.075392.23715.3554259.47976.854681.88617 1.4268171 1.06219-6.33097759.33391-2.0259033.17794-1.6184292.0546.3929714-.1189.7330266-.37822 1.0428451-.63594.098499-.10479.2080175-.20022.2954856-.31438.5023598-.65566.5701158-1.53062.5744198-2.3242-.04174-.44464-.05058-.69987-.154262-1.13895-.1835739-.77745-.5001483-1.52936-.8931999-2.22194-.2894675-.4222-.5631227-.83301-1.0197905-1.09467-.1155304-.0661-.5006197-.13049-.3692799-.15221.9572571-.15839 3.2455403-.16854 1.8985854-.15807-.1132399.0341-.2331274.0512-.3397129.1024-.6992331.33625-1.1039916 1.09816-1.3960787 1.77156-.4373362 1.0796-.7529466 2.19525-.875058 3.35799-.076393 1.04094-.1187856 2.10364.2260196 3.10651 0 0-2.75627849.13816-2.75627849.13816z" fill="#ffa5ff"/><path d="m14.58867 249.58488h71.538702" fill="none" stroke="#ffa5ff" stroke-width="1.307582"/><path d="m14.855942 255.69404h87.335418" fill="none" stroke="#ffa5ff" stroke-width="1.444753"/><path d="m15.145588 262.07365h85.526242" fill="none" stroke="#ffa5ff" stroke-width="1.465"/><path d="m15.947397 268.75539h85.526243" fill="none" stroke="#ffa5ff" stroke-width="1.465"/><path d="m15.680128 275.16985h85.526242" fill="none" stroke="#ffa5ff" stroke-width="1.465"/><path d="m19.288263 248.04199h4.810851v28.063299h-4.810851z" fill="#ffa5ff" stroke="#ffa5ff" stroke-width="1.465"/><path d="m27.840885 247.64111h.801809v28.597837h-.801809z" fill="#370037" stroke="#ffa5ff" stroke-width="1.465"/><path d="m29.837929 262.17122c.3082-.18216.576887-.41709.810014-.6871.272899-.37977.48681-.79985.69356-1.21847.167579-.36345.349748-.71888.507088-1.08707.140843-.32842.295478-.10771.454702-.42761.104198-.17876.271899-.26281.361-.44695.732844-.88628.594726-1.64132 1.417719-.38579.109623.29667.25249.57172.42108.83841.15458.25027.339783-.0674.592587.086.364797.23941.787167.33943 1.208876.42461.549195.0972 1.102706.15494 1.659043.18862.461846.0457.9085-.0398 1.338884-.2018.412576-.21519 1.271572-.67032-.571643.33942-.06892.0378.131964-.0854.196544-.13019.179713-.1246.181107-.1316.347112-.26902.309562-.24457.549113-.55184.74613-.89049.157361-.36606.244898-.76252.285239-1.1582.06375-.48694-.0275-.96174-.121211-1.43744-.15178-.62991-.302413-1.26102-.416268-1.89906-.09481-.53067-.30384-1.02832-.54129-1.50884-.268915-.51352-.585724-1.00181-.927436-1.46966-.282022-.41167-.598948-.79649-.985253-1.11364-.360701-.25863-.765379-.44175-1.177605-.60081-.483706-.16817-1.001281-.18176-1.508128-.17721-.652158.0489-1.217792.22011-1.793295.52321 1.780484-1.01762.855938-.55652.54664-.20732-.192649.21751-.308079.45709-.420966.72128-.185991.49773-.206414.93931-.115713 1.45551.07789.38851.262793.71586.519737 1.01007.209291.1638.460994.27301.710618.36198.02898.0132.05796.0263.08694.0395l-1.156962.76881c-.02777-.012-.05553-.0241-.0833-.0361-.256937-.11541-.516507-.2391-.728467-.42775-.27091-.3133-.440542-.68006-.530746-1.08544-.03442-.16347-.07692-.32966-.08359-.49783-.01384-.34924.07616-.69996.174557-1.03091.44237-1.16718.926766-1.22771 2.122953-1.90515.571121-.27097 1.181634-.438 1.816203-.46418.527844-.00053 1.069189-.002 1.566227.19978.418709.17597.838364.35652 1.198243.63979.378822.33854.711618.72512.997833 1.1451.328867.4847.646732.97847.922309 1.49573.248512.4919.485648.98775.568222 1.53926.09915.63983.228372 1.27571.396639 1.90108.121912.47996.240729.95646.178983 1.45631-.04245.40932-.13053.81256-.252939 1.20532-.195096.35157-.427376.68378-.742133.93946-.668443.59886-1.478867 1.03141-2.292715 1.3995-.442346.13872-.895815.20364-1.359852.15002-.558128-.0435-1.114272-.11104-1.666206-.20522-.442584-.0913-.880419-.20262-1.267875-.44576-.260676-.17743-.455224-.41392-.61531-.68529-.170034-.27069-.329732.003-.439102-.29932-.05249-.10015-.05391-.11504-.123243-.20158-.02064-.0258-.04293-.0503-.06665-.0732-.0092-.009-.01889-.0194-.03142-.0216-.0071-.001-.02365.0165-.01744.0129.389636-.22975.778523-.46076 1.167786-.69115-.163663.13718-.14845.38204-.25681.55838-.16465.32059-.344641.0915-.475363.42832-.163262.36878-.330425.73486-.510252 1.09591-.210405.42319-.43362.84164-.678871 1.24535-.219874.2835-.458279.50792-.751691.71459l-1.30373.50298z" fill="#370037" stroke="#ffa5ff" stroke-width="1.465"/><g fill="#370037" transform="translate(74.96517 1.187653)"><path d="m14.36128 168.44169c-4.228532-.0157-8.5295161.71074-12.1453317 2.95014-3.3665696 2.59461-4.637919 6.90671-4.8735801 11.33967.0135 3.16753.9087665 6.23487 3.07824896 8.48182 4.16305974 4.31515 10.36565384 5.16801 15.82893084 6.88619 3.316626 1.25183 7.147353 2.08479 9.468349 4.98724 2.494115 3.69091.805384 9.30613-2.990964 11.20842-4.699886 2.23818-8.961686 3.57166-14.0034586 2.15891-4.4079736-.89533-6.6545453-5.48894-7.2102109-9.57133l-5.0148705.46469c.050886 1.43695.1017448 2.87396.1525936 4.31093.1683858 2.45226.2591232 6.20283.8307883 6.40203 3.17790718 2.37381 7.5516997 3.27436 11.8439111 3.84059 4.911279.58975 10.952141-.13489 15.575236-2.26818 1.702374-.81507 3.548281-1.41873 5.20954-3.08202 2.159457 3.52366 4.375308 5.75028 7.834398 7.58761 4.215275 2.46082 10.653061 1.85398 13.06592 1.90774 3.591225.0371 6.496876-1.10482 9.353429-2.55013.07619-2.06298-.563108-4.18072-.781808-6.27268-5.463381 2.65025-12.221317 4.55397-17.943264 1.58685-4.825085-2.71722-7.471502-8.23241-7.081479-13.68571.07977-5.08245.969819-11.22975 5.793538-13.98713 3.008036-1.83387 6.421969-2.4689 9.913567-2.09424.707052.1242.800935.12148.780554.10612.09708.0378.748029.23863 4.07105 1.09579l5.637803-4.26635c-6.444823-3.18825-14.491341-4.10903-20.845057-1.97366-3.599121 1.40346-7.005254 3.81929-9.164416 7.11099-.920261 1.26841-1.584728 2.66459-2.082307 4.12819-.584963-.32845-1.232818-.61551-1.952322-.85339-5.376663-2.02491-10.913722-3.58917-16.287967-5.62085-3.6811832-1.55674-6.3130101-3.60941-6.4208689-7.16689-.1161307-2.76833.781512-5.91346 3.497097-7.17692 4.7193159-1.75645 10.1040729-1.83295 14.8405259-.0791l1.050573-4.85976c-2.026178-.39431-4.065158-.73794-6.12196-.92561-.958801-.0732-1.930374-.11632-2.906188-.11994z"/><path d="m79.313639 183.75283c-15.626064-.28974-23.775073 22.56283-15.129562 35.66202 8.12465 13.5208 29.945128 7.14041 31.068594-7.77949 1.559848-18.35728-1.05587-27.79247-15.939032-27.88253zm.04266 6.91581c15.831056.77097 11.994621 33.92251-2.975598 29.83864-13.191486-1.87454-11.418989-29.32311 2.975598-29.83864z"/><path d="m98.271585 226.22166-.06207-42.40938 6.616695.0227c-.14479 1.76745.97157 2.66295 2.27105 2.60537 2.38363-.0203 1.29301-1.11164 7.42781-2.27932 1.09231-.27511 3.69599-.39825 5.59815-.35968.86959.00097 2.30258-.19664 2.29054.74015.0123 2.18555.0231 4.37113.0345 6.55669-2.73653-1.19595-5.86264-1.69469-8.74188-.69516-3.14784.44624-5.5629 2.85601-6.96906 5.60322-1.45662 2.70927-1.15981 5.98015-1.5518 8.96118-.26777 7.07754-.022 14.17047-.0957 21.25428-2.27269-.00001-4.54546 0-6.818019-.00008z"/><path d="m124.58864 193.40784c-2.05086 5.52465-3.1294 11.46719-1.85874 17.84404 1.25491 5.81275 3.26194 9.94261 6.7868 13.48252 6.00762 5.33342 14.18695 3.73897 19.84213 3.45989l3.94709-5.50869-12.73642.2485c-8.41618-1.29899-11.00227-7.02165-11.38052-13.5394-.14528-2.23886 4.78333-1.66965 6.17828-1.81957h21.16332c.20293-5.38286-.57773-10.70709-2.51628-15.56548-2.83213-6.71302-9.60542-8.38461-15.3685-8.5327-8.72559.0197-12.55137 5.82036-14.05716 9.93096zm12.43821-4.04724c6.0818-1.87388 11.27813.63697 12.94845 7.3803 1.35031 5.60129-4.20213 5.07674-7.47735 4.94194-4.24223-.13964-8.48555-.23197-12.72712-.40069.18167-5.42142 2.82947-10.1167 7.25602-11.92155z"/></g><path d="m30.303578 262.26375c.3082.18216.576887.41709.810014.6871.272899.37977.48681.79985.69356 1.21847.167579.36345.349748.71888.507088 1.08707.140843.32842.295478.10771.454702.42761.104198.17876.271899.26281.361.44695.732844.88628.594726 1.64132 1.417719.38579.109623-.29667.25249-.57172.42108-.83841.15458-.25027.339783.0674.592587-.086.364797-.23941.787168-.33943 1.208876-.42461.549195-.0972 1.102706-.15494 1.659043-.18862.461846-.0457.9085.0398 1.338884.2018.412577.21519 1.271573.67032-.571642-.33942-.06892-.0378.131963.0854.196543.13019.179713.1246.181107.1316.347113.26902.309562.24457.549112.55184.746129.89049.157362.36606.244898.76252.285239 1.1582.06375.48694-.0275.96174-.12121 1.43744-.151781.62991-.302413 1.26102-.416269 1.89906-.09481.53067-.303839 1.02832-.541289 1.50884-.268916.51352-.585725 1.00181-.927437 1.46966-.282022.41167-.598948.79649-.985253 1.11364-.360701.25863-.765379.44175-1.177605.60081-.483706.16817-1.001281.18176-1.508128.17721-.652158-.0489-1.217792-.22011-1.793295-.52321 1.780485 1.01762.855938.55652.54664.20732-.192649-.21751-.308079-.45709-.420966-.72128-.185991-.49773-.206414-.93931-.115713-1.45551.07789-.38851.262793-.71586.519737-1.01007.209291-.1638.460994-.27301.710618-.36198.02898-.0132.05796-.0263.08694-.0395l-1.156962-.76881c-.02777.012-.05553.0241-.0833.0361-.256936.11541-.516507.2391-.728467.42775-.27091.3133-.440541.68006-.530746 1.08544-.03442.16347-.07692.32966-.08359.49783-.01384.34924.07616.69996.174557 1.03091.44237 1.16718.926766 1.22771 2.122954 1.90515.57112.27097 1.181633.438 1.816202.46418.527844.00053 1.06919.002 1.566227-.19978.41871-.17597.838364-.35652 1.198244-.63979.378822-.33854.711618-.72512.997832-1.1451.328867-.4847.646733-.97847.92231-1.49573.248511-.4919.485648-.98775.568221-1.53926.09915-.63983.228373-1.27571.396639-1.90108.121912-.47996.240729-.95646.178983-1.45631-.04245-.40932-.130529-.81256-.252938-1.20532-.195096-.35157-.427377-.68378-.742134-.93946-.668442-.59886-1.478866-1.03141-2.292714-1.3995-.442346-.13872-.895816-.20364-1.359852-.15002-.558129.0435-1.114272.11104-1.666207.20522-.442583.0913-.880419.20262-1.267875.44576-.260676.17743-.455223.41392-.61531.68529-.170034.27069-.329732-.003-.439102.29932-.05249.10015-.05391.11504-.123243.20158-.02064.0258-.04293.0503-.06665.0732-.0092.009-.01889.0194-.03142.0216-.0071.001-.02365-.0165-.01744-.0129.389636.22975.778523.46076 1.167786.69115-.163663-.13718-.14845-.38204-.25681-.55838-.16465-.32059-.344641-.0915-.475363-.42832-.163262-.36878-.330425-.73486-.510252-1.09591-.210405-.42319-.43362-.84164-.678871-1.24535-.219874-.2835-.458279-.50792-.751691-.71459l-1.30373-.50298z" fill="#370037" stroke="#ffa5ff" stroke-width="1.465"/><g fill="#370037" transform="matrix(1.2332367 0 0 1.2332367 129.06727 -48.103408)"><path d="m5.7263117 235.21647c1.2511528-6.05346 8.7436443-5.21015 13.8541353-5.22782l11.941929.0234c-.886498 4.39944-3.331096 4.02767-11.509061 3.86535-4.489461.0441-9.074996-.007-9.172274 4.55943-.165635 5.24551-.3093 6.02296 3.69755 6.12172 6.276729-.0255 9.488627.0975 11.900417.83652.25977 2.61004-.14321 3.70297-6.407019 3.57768-11.5136945-.54336-8.782289.70071-9.196434 8.69958v17.24907h-5.0529466c-.01883-13.23495-.037571-26.46995-.056323-39.70495z"/><path d="m35.731959 246.99785c-12.044718-.18778-18.326096 14.62579-11.662018 23.11698 1.565628 2.19109 3.791089 3.57597 6.262115 4.26962 2.47101.69363 5.187624.69608 7.735614.12246 2.547955-.57364 2.698029-.89377 2.949834-1.06296.224545-.20135 1.407798-1.5025 2.03109-1.39843.679076.11348.825376.25684 1.067041 1.07044.156859.52783.337384 2.39192 1.856731 2.5399 1.784555-.0463 5.22798.20283 5.554881-.0731.364027-.30701.300281-1.83485.265366-2.16613-.03058-.28915-1.967379-.71293-3.195501-1.90399-.667663-.56329-1.208944-2.95569-.528534-5.50445.55869-2.40751.479243-4.4022.329835-6.52856-.354629-8.24673-4.607652-11.88441-12.666384-12.48175zm.03299 4.48303c12.202771.49973 9.245615 21.98934-2.293628 19.34212-10.168153-1.21516-8.801882-19.00798 2.293628-19.34212z"/><path d="m52.847863 232.85673c-.884566-.0713-1.473689-3.21974 1.116176-3.21858l7.165061.0156c2.025482-.15841 1.59639 3.54972 1.635226 6.08649-.02812 11.96629-.01554 24.35075-.02866 36.31707.179624 1.91929 4.031125.36151 4.526548 1.73095.524718 1.70701-.06164 1.74538-1.139531 1.83945h-13.275249l-.521699-2.41776c1.803596-.0668 3.286197.099 4.695482-.95475.878658-1.06324.409686-2.78492.536158-4.08294.01075-11.57786.05528-23.15657.0757-34.73483l-4.785023-.58096z"/><path d="m68.477124 232.85673c-.884534-.0713-1.473677-3.21974 1.116213-3.21858l7.165036.0156c2.025484-.15841 1.596402 3.54972 1.635252 6.08649-.02813 11.96629-.01554 24.35075-.02866 36.31707.17965 1.91929 4.03115.36151 4.526549 1.73095.524717 1.70701-.06164 1.74538-1.139533 1.83945h-13.27525l-.521703-2.41775c1.803591-.0667 3.286215.099 4.695481-.95475.87868-1.06325.409695-2.78492.536168-4.08295.01075-11.57785.05528-23.15656.07542-34.73481l-4.785049-.58097z"/></g><path d="m9.6314717 203.98566c2.5978243.30854 4.6929723-.22729 7.0444203-.87402.540223-.18502 2.219881-.63671 1.62067-.55506-.662971.0903-1.240004.80779-1.818986.58209-.514392-.20053.932008-.49014 1.361623-.76038 1.232587-.77535 2.146712-1.6808 3.076224-2.60401 1.295615-1.47955 2.70295-2.91467 4.159787-4.33066 1.028529-1.00549 2.17689-1.95349 3.428716-2.84792 1.470572-.92014 3.60084-1.48317 5.353062-2.01821.528421-.16135 1.880849-.0469 2.436336-.01 3.227144.26304 6.485946.38883 9.717067.0597 1.048342-.10677 2.077841-.27905 3.116762-.41857 1.057016-.18989 2.114032-.37978 3.171045-.56967 0 0-2.713088 1.33591-2.713088 1.33591-1.065922.18856-2.131841.37712-3.197762.56568-1.07895.14927-2.148314.3305-3.236847.4478-3.38873.36519-6.821619.282-10.231397.12607-.642462-.0149-1.041558-.0457-1.666836.0149-.239874.0233-.904394.1978-.708831.10584.927321-.43603 1.971664-.75982 2.941811-1.1558.187198-.0764-.40682.11717-.591171.19637-.188532.081-.347054.18748-.520581.28123-1.308766.88559-2.505264 1.83061-3.572133 2.84197-1.497894 1.42761-2.961793 2.86854-4.292758 4.3634-.938531.9404-1.860937 1.87177-3.080984 2.67823-2.175029 1.4377-5.044365 2.30459-7.794843 3.20881-.564505.14897-1.118832.31486-1.693515.44691-1.906016.43795-3.8976588.63352-5.9151762.48253 0 0 3.6073849-1.59351 3.6073849-1.59351z" fill="#fff" stroke="#fff" stroke-width="1.830651"/><path d="m4.1238598 219.68274c-.222438-1.21399-.181037-2.44745-.08412-3.67118.130505-1.36927.476349-2.68423.967188-3.96374.344956-.82971.790357-1.70312 1.565812-2.21547.120992-.0799.258307-.1319.38746-.19783 1.421759-.28569 3.1724212-.71689 4.3867062.18705.503951.37515.823523.90971 1.142728 1.43471.439758.83556.803565 1.72953 1.018127 2.65201.123146.52944.139907.83361.197298 1.36811.0142.97677-.06524 2.02938-.620339 2.87035-.09954.15081-.226687.28145-.340028.42217-.54415.528-1.22506 1.03571-2.019643 1.05464-1.1528602.0275-2.3062642.0224-3.4593942.0336-.499955-.25263-.895434-.65312-1.279373-1.05207-.153926-.15994-.450554-.45729-.551102-.68944-.02853-.0659-.01864-.14235-.02797-.21352 1.115205-.0693 2.228585-.23503 3.345614-.20793.132533.003.178254.19631.266143.29557.383539.43312.750378.87739 1.1555712 1.29074.106794.0513.202655.13907.320156.15432.120213.0156.478797-.061.357665-.0661-.8885802-.0381-1.7897782.10809-2.6679812-.0326-.180447-.029.305744-.20247.442355-.32383.372752-.33116-.571443-1.53672-.265411-1.93341 1.584545-2.26889 4.3165302-3.69465 5.7996482-6.03123 1.762869-2.8999 3.404588-5.87096 4.98108-8.87554.571684-1.09824 1.121229-2.20766 1.679991-3.31245l3.012492.0525c-.619098 1.10801-1.250896 2.20892-1.878635 3.31207-1.691811 2.97775-3.374542 5.96126-5.158506 8.88533-1.379297 2.33472-2.779907 4.65549-4.266189 6.92409-.361623.542-.42558.68695-.846541 1.14692-.130709.14281-.224413.3698-.414422.40694-1.146316.2241-2.3206512.27606-3.4859582.35557-.13022.009-.262407-.0366-.380694-.0917-.121557-.0564-.216295-.1582-.324424-.23734-.282208-.30755-.540221-.63951-.829086-.94047-1.046356-1.09019-.251797-3.9829 4.2468282-4.38527-.10579.0821-1.9778132 3.57281-1.8074452 3.80288.409996.5534.985905 1.02221 1.6458822 1.22526-7.3029962.38517-2.3369482.20526-1.8669132.063.453305-.13716.84557-.43628 1.202957-.73357.113623-.12089.239955-.23097.3408532-.36266.579489-.75632-.8995612-1.92133-.8945962-2.83676-.04815-.5129 1.6273252-2.04634 1.3792622-1.1581-.211758-.89681-2.0303332 2.23267-2.4837322 1.43375-.33391-.48702.803815-4.95773.277033-5.25956-.133268-.0762-.577482-.15053-.425977-.17559 1.104228-.18271 3.7438412-.1944 2.1900822-.18234-.1306262.0393-.2689202.0589-.3918712.11814-.806587.38786-.391072 2.82396-.728004 3.60075-.504482 1.24536-.780404.55734-.921263 1.8986-.08812 1.20076-1.107588 2.84437-.709843 4.00122l-3.17946.15936z" fill="#ffa5ff"/><path d="m16.952797 228.50264c-.222438-1.21399-.181037-2.44745-.08412-3.67118.130505-1.36927.476349-2.68423.967188-3.96374.344956-.82971.790357-1.70312 1.565812-2.21547.120992-.0799.258307-.1319.38746-.19783 1.421759-.28569 3.172421-.71689 4.386706.18705.503951.37515.823523.90971 1.142728 1.43471.439758.83556.803565 1.72953 1.018127 2.65201.123146.52944.139907.83361.197298 1.36811.0142.97677-.06524 2.02938-.620339 2.87035-.09954.15081-.226687.28145-.340028.42217-.54415.528-1.22506 1.03571-2.019643 1.05464-1.15286.0275-2.306264.0224-3.459394.0336-.499955-.25263-.895434-.65312-1.279373-1.05207-.153926-.15994-.450554-.45729-.551102-.68944-.02853-.0659-.01864-.14235-.02797-.21352 1.115205-.0693 2.228585-.23503 3.345614-.20793.132533.003.178254.19631.266143.29557.383539.43312.750378.87739 1.155571 1.29074.106794.0513.202655.13907.320156.15432.120213.0156.478797-.061.357665-.0661-.88858-.0381-1.789778.10809-2.667981-.0326-.180447-.029.305744-.20247.442355-.32383.372752-.33116-.571443-1.53672-.265411-1.93341 1.584545-2.26889 4.31653-3.69465 5.799648-6.03123 1.762869-2.8999 3.404589-5.87096 4.981081-8.87554.571684-1.09824 1.121229-2.20766 1.679991-3.31245l3.012492.0525c-.619098 1.10801-1.250896 2.20892-1.878635 3.31207-1.691811 2.97775-3.374542 5.96126-5.158506 8.88533-1.379298 2.33472-2.779908 4.65549-4.26619 6.92409-.361623.542-.42558.68695-.846541 1.14692-.130709.14281-.224413.3698-.414422.40694-1.146316.2241-2.320651.27606-3.485958.35557-.13022.009-.262407-.0366-.380694-.0917-.121557-.0564-.216295-.1582-.324424-.23734-.282208-.30755-.540221-.63951-.829086-.94047-1.046356-1.09019-.251797-3.9829 4.246828-4.38527-.10579.0821-1.977813 3.57281-1.807445 3.80288.409996.5534.985905 1.02221 1.645882 1.22526-7.302996.38517-2.336948.20526-1.866913.063.453305-.13716.84557-.43628 1.202957-.73357.113623-.12089.239955-.23097.340853-.36266.579489-.75632-.899561-1.92133-.894596-2.83676-.04815-.5129 1.627325-2.04634 1.379262-1.1581-.211758-.89681-2.030333 2.23267-2.483732 1.43375-.33391-.48702.803815-4.95773.277033-5.25956-.133268-.0762-.577482-.15053-.425977-.17559 1.104228-.18271 3.743841-.1944 2.190082-.18234-.130626.0393-.26892.0589-.391871.11814-.806587.38786-.391072 2.82396-.728004 3.60075-.504482 1.24536-.780404.55734-.921263 1.8986-.08812 1.20076-1.107588 2.84437-.709843 4.00122l-3.17946.15936z" fill="#ffa5ff"/><g stroke="#ffa5ff"><path d="m22.574061 198.71228c.703661.48452 1.456524.89372 2.195388 1.32145.670871.35535 1.263045.80557 1.777183 1.36121.541036.64545 1.01768 1.33937 1.549234 1.99263.654007.8027 1.510532 1.37909 2.333754 1.98818.541579.37696 1.118944.70407 1.72652.96148.579419.2121 1.177475.35086 1.734744.62148.361672.21118.735771.40636 1.085265.63751.23786.14489.473281.29459.711927.43927 0 0-1.644279 1.05956-1.644279 1.05956-.236008-.15212-.477533-.29401-.714298-.44441-.338178-.22702-.690481-.43576-1.048086-.63027-.551532-.26776-1.144157-.4091-1.716461-.62325-.612942-.26876-1.186688-.62596-1.730756-1.0141-.810427-.63749-1.624372-1.27705-2.313543-2.04949-.546992-.63875-1.067697-1.29746-1.59733-1.95031-.506475-.52627-1.072346-.97693-1.707095-1.34253-.752093-.44879-1.522822-.8644-2.300805-1.26641 0 0 1.658638-1.062 1.658638-1.062z" fill="#ffa5ff" stroke-width="1.465"/><path d="m19.999746 204.76874c.124481.40105.374832.74357.62328 1.07569.359183.48801.766497.86787 1.259983 1.21314.305074.21992.654868.29964 1.021716.33311.34031.0307.629243.20664.91259.38261.260671.18157.472066.4278.667902.67595.132232.19701.304631.34554.50703.4648 0 0-1.163476.7467-1.163476.7467-.199351-.14236-.379194-.30574-.520305-.50805-.189865-.23319-.385568-.47007-.637414-.63886-.276881-.16544-.556114-.3092-.885075-.33071-.376781-.0566-.731907-.16417-1.034782-.40703-.133984-.10033-.295719-.21751-.420552-.32792-.314422-.2781-.574115-.61055-.849369-.92538-.26446-.34446-.520929-.69704-.715855-1.08655 0 0 1.234327-.6675 1.234327-.6675z" fill="#ffa5ff" stroke-width="1.465"/><path d="m26.88839 229.99592c-.05156-.34596.755617-.82216 1.808043-1.0257.648961-.0963 1.424979.14885 1.712093.78258.210636.43497.161108 1.00093-.191618 1.34888-.524241.58696-1.364514.82811-2.13158.73359-.320001-.0624-.645215-.11818-.953419-.22487-.308421-.12295-.56173-.45519-.461418-.79796.146621-.65805.842062-1.1 1.495676-1.07747.34282.0835.678413.0838 1.020691.16427.567322.18498.930782.87201.702068 1.43449-.09796.26801-.411637.38031-.673906.3071-.280743-.0677-.531038-.22848-.763644-.39258-.376415-.36732-.431495-.94696-.326836-1.43834.17204-.27518-.537932.05-.263303-.25842.359804-.21735.833228-.36201 1.229829-.15459.224238.24163.416026.51734.681478.71762.319054.39514.437224 1.03445.07785 1.44259-.338882.28765-.873011.13941-1.152775-.16083-.464776-.46518-1.080739-.81015-1.747711-.84097-.136484-.0801.296804-.14745.39272-.1364.439982.0184.851365.20448 1.253661.36751.307889.13916.616284.29865.956502.33865.151282-.26809-.277924-.46605-.367817-.70457-.287219-.35665-.65962-.73609-1.148569-.74624-.383694.0302-.640537.36942-.806855.68377-.25373.29844-.0096-.52181-.34116-.36211z" fill="#ffa5ff" stroke-width="1.465"/><path d="m54.306514 258.85378c.101685.66656.144831 1.34006.21436 2.01039.06947.66522.09774 1.33342.116668 2.00167.01709.42829.01677.85694.02151 1.28547.0069.23849.0075.47706.01056.71561.000794.11715-.0041.0593.01418.17366 0 0-1.221097.65727-1.221097.65727-.03957-.13997-.03179-.0728-.03081-.20044.0036-.24257.0052-.48517.01299-.72765.0058-.43277.0067-.86561.0098-1.29841-.0066-.66935-.02474-1.33885-.08636-2.00577-.05934-.65088-.09522-1.31686-.284427-1.94538 0 0 1.222578-.66642 1.222578-.66642z" fill="#ff61ff" stroke-width="1.465"/><path d="m54.777928 261.39118c.410474-.15471.819525-.32347 1.232196-.45868.358177-.0856.720373-.18693 1.082733-.17779.234852.006.419616.0629.653881.11803 1.011089.2603 2.031497.3397 3.050622.39603 1.17375.0456 2.347415.0149 3.521019.0734.800087.0493 1.600515.0734 2.400972.0873.655939.0168 1.311884.004 1.967823-.001.465156-.001.930301-.009 1.395431-.0186.599136.0112 1.198073.0335 1.79728.0359.467643-.0227.929246-.17109 1.388044-.32894 0 0-1.066861 1.493-1.066861 1.493-.454337.12064-.910032.24001-1.369785.25427-.617024.002-1.2338.0253-1.850758.0365-.456903-.009-.913823-.0149-1.370753-.0149-.650412-.006-1.300816-.0186-1.951228-.0248-.790022-.022-1.579539-.0715-2.368865-.13665-1.159795-.0845-2.320306-.0882-3.480744-.1251-1.045507-.0374-2.091309-.0799-3.13082-.31223-.591386-.0922-1.150149-.0603-1.734831.14428-.43312.15192-.859345.36957-1.295397.48875 0 0 1.130041-1.52849 1.130041-1.52849z" fill="#ff61ff" stroke-width="1.998893"/><path d="m73.856698 258.27957c-.0395.57399-.03897 1.14985-.04885 1.72486-.0081.70321.0078 1.40628.0218 2.10929.01484.39167.0053.78347.0099 1.17529.0075.39242-.0074.78462-.0052 1.17709 0 0-1.202915.61292-1.202915.61292.0021-.39071-.01267-.78114-.0052-1.1718.0045-.39517-.0049-.79032.0099-1.18535.01386-.71042.0298-1.4209.0218-2.13153-.0098-.5584-.0085-1.11778-.04885-1.67507 0 0 1.247624-.6357 1.247624-.6357z" fill="#ff61ff" stroke-width="1.465"/><path d="m57.321314 252.97299c.384943-.20002 1.169181-.61004-.4875.29962-.104007.0571.20156-.12526.301668-.18895.287763-.18311.274619-.17748.556529-.36996.364514-.25546.676217-.57266.979409-.89572.05657-.0603.100721-.13571.170426-.18013.421669-.26878.864266-.50322 1.296397-.75483.05117.0428.117369.0722.153519.12827.0893.13842.117465.41634.135324.56376.04408.36388.05097.72999.06241 1.09589.02492.82402-.06302 1.64569-.144338 2.46445-.03974.4304-.08479.86094-.09666 1.29324-.0064.22194-.0084.44397-.0087.66599.0038.18385.0013.36765.000794.55152 0 0-1.230696.6273-1.230696.6273-.0011-.18373-.0044-.3674-.0016-.55114-.0011-.22527-.0058-.451.01024-.67588.03836-.4462.09192-.89021.159692-1.33302.103349-.81121.185097-1.62828.152114-2.44727-.0114-.3562-.01789-.71609-.07298-1.06909-.01323-.0848-.05591-.34734-.12632-.44299-.01275-.0173-.0416-.0109-.06239-.0164.336952-.20457.661582-.43098 1.010853-.61372.07691-.0402-.125843.11967-.186071.18218-.23187.24066-.455093.48503-.707466.7056-.08745.0764-.179832.147-.269746.22051-.854553.59847-1.753531 1.13647-2.686544 1.60339 0 0 1.091528-.86265 1.091528-.86265z" fill="#ff61ff" stroke-width="1.465"/><path d="m64.304754 252.72233c.384943-.20002 1.169181-.61004-.4875.29962-.104007.0571.20156-.12526.301668-.18895.287763-.18311.274619-.17748.556529-.36996.364514-.25546.676217-.57266.979409-.89572.05657-.0603.100721-.13571.170426-.18013.421669-.26878.864266-.50322 1.296397-.75483.05117.0428.117369.0722.153519.12827.0893.13842.117465.41634.135324.56376.04408.36388.05097.72999.06241 1.09589.02492.82402-.06302 1.64569-.144338 2.46445-.03974.4304-.08479.86094-.09666 1.29324-.0064.22194-.0084.44397-.0087.66599.0038.18385.0013.36765.000794.55152 0 0-1.230696.6273-1.230696.6273-.0011-.18373-.0044-.3674-.0016-.55114-.0011-.22527-.0058-.451.01024-.67588.03836-.4462.09192-.89021.159692-1.33302.103349-.81121.185097-1.62828.152114-2.44727-.0114-.3562-.01789-.71609-.07298-1.06909-.01323-.0848-.05591-.34734-.12632-.44299-.01276-.0173-.04161-.0109-.0624-.0164.336952-.20457.661582-.43098 1.010853-.61372.07691-.0402-.125843.11967-.186071.18218-.23187.24066-.455093.48503-.707466.7056-.08745.0764-.179832.147-.269746.22051-.854553.59847-1.753531 1.13647-2.686544 1.60339 0 0 1.091528-.86265 1.091528-.86265z" fill="#ff61ff" stroke-width="1.465"/><path d="m85.669984 249.38505c-.110926 1.17572.01064 2.35795.09048 3.53186.128066 1.72068.137403 3.44625.209952 5.16947.06169 1.1301.07539 2.26324.146719 3.39285.03474.55022.06679.78929.12545 1.32321.158615 1.16481.168984 2.33981.176334 3.51292.0078 1.00356.04892 2.00644.06093 3.00989-.0024.59343.0081 1.18671.01561 1.78005.0016.49767-.0086.9951-.0016 1.49274.007.40947.0019.81868.02703 1.22754.02389.28295.04675.566.07109.84891 0 0-1.226082.63284-1.226082.63284-.0057-.28732-.0218-.5743-.04283-.8609-.03208-.41273-.045-.82409-.0268-1.23819.007-.49727-.003-.99433-.000794-1.49162.0085-.59925.02064-1.19842.01932-1.79778.0127-1.01774.04901-2.03537.02907-3.05334-.03322-1.16687-.08857-2.33282-.189981-3.49599-.0231-.32963-.07427-1.03606-.08867-1.34917-.05232-1.1377-.03171-2.27806-.101795-3.41525-.02848-.61826-.06421-1.23619-.09044-1.85455-.04659-1.0985-.06262-2.19872-.150402-3.29525-.08864-1.14539-.196795-2.28931-.303229-3.43298 0 0 1.250686-.63726 1.250686-.63726z" fill="#ff61ff" stroke-width="1.465"/><path d="m91.142515 255.84689c-.08185 1.04363-.09081 2.09116-.108679 3.13689-.03125 1.64387-.0066 3.28794.01007 4.93181.01272 1.24329.01502 2.48661.02471 3.72992.01.73197.03824 1.46336.04211 2.1954.0062.43896.01524.87775.01266 1.31676.02253.38195-.01242.76176-.04437 1.14226-.02975.38215-.04498.76417-.08589 1.14561-.02834.26144-.0467.52356-.05864.78594 0 0-1.392963.6196-1.392963.6196.0188-.26759.04731-.53443.07878-.80108.03869-.38069.05439-.76218.08486-1.14347.03761-.37746.05919-.75447.05242-1.13355-.0027-.44281.0066-.8854.01266-1.32817.004-.74467.03226-1.48872.04211-2.23334.0097-1.25073.01203-2.50147.02471-3.75219.01652-1.64688.04133-3.29396.01007-4.94084-.0176-1.01306-.02489-2.02821-.108691-3.03897 0 0 1.404159-.63258 1.404159-.63258z" fill="#ff61ff" stroke-width="1.558015"/><g stroke-width="1.465"><path d="m103.50967 257.60507c-.36742-.18231-.7714-.27383-1.16056-.39861-.52233-.17401-1.07003-.21701-1.61577-.24598-.64963-.0193-1.301713-.0391-1.950955-.001-.287618.0317-.590056.0378-.863873.14253-.155755.0596-.215278.10598-.357243.19391 1.804974-1.05123.9222-.58268.604684-.18525-.183705.22994-.292214.49365-.403762.76256-.16437.41474-.323104.84002-.368551 1.28742-.0283.27861-.009.40206.0083.68142.08361.53245.263554 1.06273.613093 1.48272.07413.0891.160155.16754.240233.25131.09624.0715.185026.1543.28873.21445.750686.43544 1.854924.51002 2.703504.56574.81809.0236 1.65482-.0518 2.4258-.34456.11258-.0427.22043-.097.33064-.14551-.28937.16326-.56976.3436-.86813.48979-.0769.0377.13968-.1007.19938-.16213.24244-.24947.31186-.5752.35425-.90635.0349-.53384-.12789-1.04207-.31908-1.53253-.19774-.46148-.38759-.92471-.64343-1.35768-.18073-.33368-.46194-.54212-.78025-.73246-.38601-.22342-.81185-.35974-1.22027-.53445-.28439-.12077-.14169-.0599-.4281-.18252 0 0 1.11999-.74684 1.11999-.74684.28747.12144.14372.0614.43125.18004.41441.17284.84119.32006 1.22903.55046.35593.20869.63166.41162.82176.78958.24264.44662.42927.91903.63753 1.38213.20655.50794.35743 1.03566.35066 1.58956-.0318.35108-.0851.71217-.31555.99731-.33773.4178-1.57491.97397-1.59702.98657-.10942.0426-.21687.0907-.32827.1278-.77177.25726-1.5971.30965-2.40413.27018-.610569-.0482-1.216845-.10591-1.81559-.24266-.336655-.0769-.68385-.17042-.98703-.34398-.1099-.0629-.201584-.15332-.302374-.22999-.08635-.0879-.179782-.16929-.259059-.26359-.366215-.43559-.54927-.99703-.641157-1.5489-.02283-.27852-.04673-.42792-.02347-.70739.03771-.45315.182388-.88867.347337-1.30892.45508-1.23364.76346-1.2184 2.051478-1.98427.164315-.0852.204756-.11647.381678-.16828.278884-.0817.576365-.0872.863772-.10657.648705-.017 1.297775.0107 1.946465.0198.55936.0281 1.1175.0761 1.65021.26353.40042.1266.80791.23172 1.20892.35495 0 0-1.15511.79676-1.15511.79676z" fill="#ff61ff"/><path d="m97.223351 257.66651c.03436.0539.07379.10488.103069.1617.361725.70188.453535 1.65853.552103 2.42986.165174 1.55782.150641 3.12671.150789 4.69103-.0035 1.61192.0186 3.22372.03032 4.83557.02914 1.14222.0056 2.28346-.02537 3.42521-.02715.99419-.03352 1.98878-.043 2.98325-.01035.79507.0136 1.58987.02024 2.38485.0021.4561.01122.91206.0217 1.36803.0011.0456.0019.0912.0029.13675 0 0-1.225502.62446-1.225502.62446.0011-.0465.0019-.0931.0028-.13962.01013-.46317.01876-.92633.02064-1.38963.0063-.80344.03047-1.60661.02764-2.41014.0026-.99774.01939-1.99526.05454-2.99243.03688-1.14704.0613-2.29411.06573-3.4418.01617-1.62134.04564-3.24274.0281-4.8642-.02267-1.54854-.03804-3.10147-.212193-4.64205-.103511-.70936-.219094-1.69702-.641538-2.30297-.03382-.0485-.08052-.0867-.120777-.12997 0 0 1.187839-.7279 1.187839-.7279z" fill="#ff61ff"/><path d="m35.13184 195.72568c.242001-.201.343681-.27324.572574-.53236.659972-.74714 1.275231-1.63265 1.854693-2.4449.569354-.82819 1.090019-1.6983 1.430826-2.64772.07018-.1955.37224-1.19429.431832-1.38961.267825-.96779.555758-1.93103.754428-2.91603.05851-.34495.03291-.17698.07774-.50375 0 0 1.731704-.85149 1.731704-.85149-.05138.34397-.01995.16742-.09626.52931-.245981 1.00426-.562867 1.98914-.856509 2.98007-.211244.69762-.386975 1.42243-.68657 2.08948-.317955.70794-.753063 1.36391-1.17643 2.01063-.455425.64427-.927606 1.27515-1.389068 1.9149-.120888.16759-.230378.3434-.355126.50814-.201147.26564-.260837.31247-.470192.51725 0 0-1.823643.73608-1.823643.73608z" fill="#ffa5ff"/><path d="m39.114843 198.15069c1.212168-.78424 2.068986-1.98999 2.889655-3.15072.947211-1.46878 1.776225-3.01647 2.37916-4.65814.280194-.82506.374639-1.69281.513646-2.548.07831-.48174.143079-.80694.234101-1.28832 0 0 1.621094-.78888 1.621094-.78888-.04716.2592-.185627 1.01337-.229087 1.27911-.142221.86961-.238786 1.75235-.520711 2.59215-.08492.2279-.16139.45913-.254754.6837-.588936 1.41661-1.401259 2.73245-2.180457 4.04834-.766339 1.11651-1.546887 2.25933-2.608895 3.11945 0 0-1.843752.71131-1.843752.71131z" fill="#ff61ff"/><path d="m36.973533 185.83744c.975188.64572 1.997933 1.20283 3.046656 1.71822 1.424303.739 2.931102 1.33695 4.507008 1.66033.243181.0499.489876.0808.734811.12121.91054.1496 1.821953.11021 2.734421.0284.611974-.0683 1.226659-.0863 1.841791-.0929.528672-.004 1.057318-.008 1.585963-.015 0 0-1.558007 1.13219-1.558007 1.13219-.521464-.006-1.042963-.009-1.56438.004-.612408.0175-1.224249.0484-1.834634.10243-.893173.0675-1.782072.0373-2.66418-.13911-.2394-.0494-.480803-.0899-.718203-.14815-1.560738-.38297-3.05734-1.00197-4.497951-1.70487-.290854-.1303-.58483-.25384-.872565-.39089-.804436-.38317-1.568995-.85273-2.397146-1.18571 0 0 1.656416-1.08986 1.656416-1.08986z" fill="#ffa5ff"/><path d="m34.862812 190.66726c1.175477.69217 2.31131 1.44819 3.470844 2.16642 1.974508 1.15382 4.089802 2.03945 6.255705 2.76146 1.06971.39358 2.174224.63687 3.307593.73228.129937.006.259874.0128.389811.0192 0 0-1.534605 1.09884-1.534605 1.09884-.126362-.0113-.252727-.0226-.37909-.034-.359793-.0419-.553003-.0583-.914556-.12628-.798181-.15006-1.560375-.4369-2.3227-.70946-2.110986-.83188-4.187912-1.75801-6.178005-2.85089-1.225891-.69596-2.440622-1.42527-3.742341-1.97373 0 0 1.647344-1.08389 1.647344-1.08389z" fill="#ffa5ff"/><path d="m54.635116 216.76879c-.01405.50521-.09933 1.00315-.169778 1.50254-.145314.90909-.27577 1.82063-.391538 2.73395-.102129.95087-.274331 1.89176-.39025 2.84069-.09599.8443-.102486 1.69434-.153006 2.54167-.06776.71795-.117522 1.43719-.140078 2.15798-.04481.58137-.133731 1.15834-.229008 1.73325-.01476.0843-.04944.23946-.04244.33406.0016.0219.0037.0519.02339.0615.0085.004.137689-.14571.08683-.12103-.362114.1757-.706808.38525-1.060212.57787.377405-.41517.657437-.90541.941261-1.38616.380021-.57561.730218-1.16544 1.041582-1.78073.26896-.51819.502306-1.05322.762405-1.57571.14483-.28455.301334-.56399.40068-.86881.04606-.14132.08173-.28582.123735-.42839.132852-.44443.228171-.89689.282689-1.35725-.0016-.2052.10991-.55482-.03721-.7266-.02032-.011-.03805-.0299-.06093-.0329-.02558-.003-.0505.0108-.07598.0149-.207378.0334-.400444.0965-.600115.16203-.07341.0277-.14805.0524-.220239.0832-.08603.0367-.170272.0776-.254079.11908-.09993.0495-.393205.21052-.297029.15405 1.42499-.83678.746979-.42851.402918-.18288-.122095.0872-.240025.18002-.360037.27003-.494533.38906-.973527.79607-1.42689 1.23232 0 0-1.218444.50184-1.218444.50184.463833-.4449.950585-.86181 1.455389-1.25996.914789-.70654 1.906158-1.33843 2.990064-1.74879.270737-.0865.618977-.24213.861475-.0216.02167.0319.04906.0607.06504.0958.102598.22561-.01238.50653-.0074.73909-.06501.46584-.154226.92697-.282392 1.38-.13008.46064-.262255.91639-.524428 1.3241-.264134.52795-.508614 1.06513-.785461 1.58668-.0398.0794-.277019.55447-.31936.63229-.215429.39594-.474504.76567-.706649 1.15153-.283184.47307-.54691.96055-.888717 1.39531-.428096.27227-.845518.5621-1.284288.81682-.03633.0211-.08641.0159-.126026.002-.223795-.0791-.0997-.40762-.06774-.55538.115901-.57097.208664-1.1478.261639-1.72817.03391-.7229.08316-1.44457.148249-2.1654.05469-.85691.100393-1.71497.191947-2.56894.10605-.94634.26539-1.88472.367969-2.83152.121621-.90925.264711-1.81537.378344-2.72569.04516-.47838.130855-.96009.08346-1.44144 0 0 1.250685-.63725 1.250685-.63725z" fill="#ff61ff"/><path d="m33.300593 238.12675c.01161-.19482.06853-.38291.09825-.57557.02992-.27283.06024-.54579.0843-.81926.0061-.20967.04816-.40827.157536-.58796.321871-.41398.819165-.60932 1.31241-.63758.158202.0139.329805-.029.485582.0112.03107.008.05939.0243.08909.0365.162023.0818.24842.21989.296539.38894.044.16036-.0079.29195-.0946.42507-.106235.15069-.211537.30239-.328747.4448-.147119.16189-.266631.34499-.421767.49959-.32099.25783-.738656.45087-1.071123.64166-.07796.0447-.14327.085-.23313.0898-.01855-.0235-.04601-.0422-.05561-.0705-.05752-.16988.178297-.38401.286948-.4798.549347-.39778 1.028859-.66748 1.667232-.76049.346446.0165.416031.0975.567518.39223.112747.27683.18981.56643.305393.84238.09216.22001.126783.27401.236979.48136.119203.19495.237607.39575.387858.56937.12.13867.266904.25314.408737.36795.214349.14919.432096.29326.639834.45171.01918.0272.04632.0502.05756.0815.04641.12919-.03085.28219-.068.40229-.05505.17799-.04034.12988-.08796.30933-.03139.18552-.130222.42322-.02103.60292.01675.0276.04342.0477.06512.0716.09786.0585.203986.11572.323152.10029.04107-.005.154199-.0581.118647-.0368-.891035.53217-.883634.54043-.585875.28374.03385-.0455.07234-.088.101563-.13659.148167-.24663.230106-.61067.319077-.88759.07059-.22824.159443-.45838.120073-.69976-.08185-.11499-.249827-.10375-.376811-.10969-.03304-.0008-.06608-.002-.09912-.002 0 0 .787543-.56879.787543-.56879.0345.001.069.002.103505.004.180726.0152.36074.0411.44963.22032.03829.28068-.03665.48985-.12731.75396-.06235.1793-.116387.36064-.174961.54118-.02849.0878-.09127.28418-.131783.36834-.02567.0533-.06056.10174-.09084.15261-.333267.38402-.15204.20335-1.062424.66138-.06561.033-.20519.007-.269012-.0138-.104752-.0336-.144098-.0699-.234392-.13098-.02709-.0334-.05969-.0631-.08128-.10026-.119406-.20579-.04158-.44949.0065-.66224.03843-.15294.08191-.30347.126365-.45474.01101-.0374.02217-.0748.03232-.11251.0055-.0205.01836-.041.01466-.0618-.004-.0228-.02408-.0394-.03611-.0592-.198901-.16622-.425035-.29682-.623076-.46466-.143539-.12311-.293817-.2443-.413043-.39245-.146556-.18211-.255733-.39353-.380066-.59019-.08847-.17399-.16079-.31085-.240528-.49004-.09633-.21649-.172884-.4406-.263252-.65932-.02154-.0521-.04687-.10262-.0703-.15393-.14555-.24951-.199543-.30733-.50524-.29224-.135652.0227-.268391.0488-.39872.0943-.330446.11528-.490767.27131.525738-.34284.04309-.026-.08794.049-.131908.0735-.108958.0763-.10409.0621-.186952.15933-.009.0105-.125156.2085-.150029.15271.05253-.0231.04818-.0202.111244-.0544.03082-.0167.121957-.0692.09164-.0516-1.347174.78203-.874731.51073-.584168.33756.169664-.1401.286207-.32264.427244-.48965.123089-.13274.220355-.28671.326527-.43303.0799-.10376.15907-.20857.127976-.34657-.03314-.14197-.09891-.25405-.241797-.30887-.180189-.0453-.368877-.0215-.552704-.0149-.0838.009-.167949.0169-.248348.044-.02743.009-.104789.0488-.08016.0335.906928-.56092.98325-.62124.698418-.40815-.135194.15403-.182158.34314-.189008.54585-.03144.27434-.06686.54814-.08411.82387-.02524.18351-.07077.36622-.07909.55014 0 0-.884367.45061-.884367.45061z" fill="#ffa5ff"/><path d="m34.039807 241.51124c-.129458.17631-.153077.40628-.177123.61763-.01421.20003-.04626.40541.0288.59642.127907.1966.378513.0757.54674.002.451834-.28296-.186603.12148-.529529.27039-.04778.0207.0742-.0736.106016-.11482.07958-.10318.116004-.21219.141766-.3371.000529-.22352-.03324-.24269-.229544-.19423-.088.0312-.284541.22313-.307213.0142-.0033-.0299.01873-.0572.0281-.0858.184714-.31761.398098-.61546.621602-.90652.334714-.42829.740524-.79247 1.10568-1.19374.324361-.38817.604446-.81044.923068-1.20293.295812-.33574.576366-.68439.843389-1.04337.20906-.30299.42967-.5972.650573-.8915.205306-.26678.372708-.55939.567309-.83355.306454-.42707.542449-.51295 1.126032-.79637.01974-.01.02699.0346.04049.052.0072.0228.01958.0446.02154.0684.0011.0119-.0029.0272-.01315.0333-.291484.17282-.577911.35714-.885418.49952-.03229.0149-.232516-.18197-.24887-.19925-.111595-.14447-.286207-.36535-.265639-.56263.0039-.0371.02233-.0713.03349-.10693.601234-.58245 1.089271-.79121 1.750105-.41624.08724.0495.166269.11224.249404.16836.318442.28032.610333.63896.685247 1.0696.009.0519.0079.105.01185.1575-.122819.43165-.05684.30146-.978397.60988-.07322.0245-.136774-.0722-.201258-.11463-.187299-.12332-.362852-.26361-.544542-.39506 0 0 .754282-.48066.754282-.48066.14949.10074.399553.27937.569347.35671.06272.0286.246549.008.198609.0576-.176969.18283-.96919.7257-.649205.40155.0024-.0489.01058-.0979.0071-.14676-.02914-.41594-.319108-.7633-.62094-1.02238-.213098-.13085-.258349-.17956-.497628-.24719-.07422-.021-.150945-.0358-.227983-.0395-.06411-.003-.24138.0597-.191614.0191.379841-.30946.980424-.53431.573204-.37673-.01884.0207-.04593.0363-.05649.0622-.0613.15073.134464.39633.223162.49893.04248.0348.09708.0912.156602.10318.01672.003.06499-.0178.05039-.009-1.484291.89619-.983718.23-.759648.52814.223838.2954.01757.0523.855859-.43601.01754-.0102-.03709.0173-.05326.0296-.0915.0695-.162398.16609-.234259.25385-.20288.27137-.374933.56324-.573918.83741-.220488.29952-.454435.58905-.66353.89696-.265896.35969-.542753.71089-.838333 1.04672-.331007.39113-.626639.80964-.940382 1.21451-.358928.40058-.760965.76092-1.096835 1.18164-.211495.27936-.423717.55941-.580602.87442-.03556.0294-.05447.0668-.08544-.0163-.0042-.0113.221435-.10206.25401-.0982.237855-.005.310658.13213.312825.35613-.102087.6926-.737799.87662-1.33573 1.19209-.242441.0795-.505688.1532-.652204-.11288-.07854-.20882-.06094-.42468-.03798-.64351.02252-.22077.04575-.44678.130723-.65383 0 0 .909282-.39185.909282-.39185z" fill="#ffa5ff"/><path d="m27.878848 280.62203c-.01405.50521-.09933 1.00315-.169778 1.50254-.145314.90909-.27577 1.82063-.391538 2.73395-.102129.95087-.274331 1.89176-.39025 2.84069-.09599.8443-.102486 1.69434-.153006 2.54167-.06776.71795-.117522 1.43719-.140078 2.15798-.04481.58137-.133731 1.15834-.229008 1.73325-.01476.0843-.04944.23946-.04244.33406.0016.0219.0037.0519.02339.0615.0085.004.137689-.14571.08683-.12103-.362114.1757-.706808.38525-1.060212.57787.377405-.41517.657437-.90541.941261-1.38616.380021-.57561.730218-1.16544 1.041582-1.78073.26896-.51819.502306-1.05322.762405-1.57571.14483-.28455.301334-.56399.40068-.86881.04606-.14132.08173-.28582.123735-.42839.132852-.44443.228171-.89689.282689-1.35725-.0016-.2052.10991-.55482-.03721-.7266-.02032-.011-.03805-.0299-.06093-.0329-.02558-.003-.0505.0108-.07598.0149-.207378.0334-.400444.0965-.600115.16203-.07341.0277-.14805.0524-.220239.0832-.08603.0367-.170272.0776-.254079.11908-.09993.0495-.393205.21052-.297029.15405 1.42499-.83678.746979-.42851.402918-.18288-.122095.0872-.240025.18002-.360037.27003-.494533.38906-.973527.79607-1.42689 1.23232 0 0-1.218444.50184-1.218444.50184.463833-.4449.950585-.86181 1.455389-1.25996.914789-.70654 1.906158-1.33843 2.990064-1.74879.270737-.0865.618977-.24213.861475-.0216.02167.0319.04906.0607.06504.0958.102598.22561-.01238.50653-.0074.73909-.06501.46584-.154226.92697-.282392 1.38-.13008.46064-.262255.91639-.524428 1.3241-.264134.52795-.508614 1.06513-.785461 1.58668-.0398.0794-.277019.55447-.31936.63229-.215429.39594-.474504.76567-.706649 1.15153-.283184.47307-.54691.96055-.888717 1.39531-.428096.27227-.845518.5621-1.284288.81682-.03633.0211-.08641.0159-.126026.002-.223795-.0791-.0997-.40762-.06774-.55538.115901-.57097.208664-1.1478.261639-1.72817.03391-.7229.08316-1.44457.148249-2.1654.05469-.85691.100393-1.71497.191947-2.56894.10605-.94634.26539-1.88472.367969-2.83152.121621-.90925.264711-1.81537.378344-2.72569.04516-.47838.130855-.96009.08346-1.44144 0 0 1.250685-.63725 1.250685-.63725z" fill="#ffa5ff"/><path d="m23.3211 280.11339c-.01405.50521-.09933 1.00315-.169778 1.50254-.145314.90909-.27577 1.82063-.391538 2.73395-.102129.95087-.274331 1.89176-.39025 2.84069-.09599.8443-.102486 1.69434-.153006 2.54167-.06776.71795-.117522 1.43719-.140078 2.15798-.04481.58137-.133731 1.15834-.229008 1.73325-.01476.0843-.04944.23946-.04244.33406.0016.0219.0037.0519.02339.0615.0085.004.137689-.14571.08683-.12103-.362114.1757-.706808.38525-1.060212.57787.377405-.41517.657437-.90541.941261-1.38616.380021-.57561.730218-1.16544 1.041582-1.78073.26896-.51819.502306-1.05322.762405-1.57571.14483-.28455.301334-.56399.40068-.86881.04606-.14132.08173-.28582.123735-.42839.132852-.44443.228171-.89689.282689-1.35725-.0016-.2052.10991-.55482-.03721-.7266-.02032-.011-.03805-.0299-.06093-.0329-.02558-.003-.0505.0108-.07598.0149-.207378.0334-.400444.0965-.600115.16203-.07341.0277-.14805.0524-.220239.0832-.08603.0367-.170272.0776-.254079.11908-.09993.0495-.393205.21052-.297029.15405 1.42499-.83678.746979-.42851.402918-.18288-.122095.0872-.240025.18002-.360037.27003-.494533.38906-.973527.79607-1.42689 1.23232 0 0-1.218444.50184-1.218444.50184.463833-.4449.950585-.86181 1.455389-1.25996.914789-.70654 1.906158-1.33843 2.990064-1.74879.270737-.0865.618977-.24213.861475-.0216.02167.0319.04906.0607.06504.0958.102598.22561-.01238.50653-.0074.73909-.06501.46584-.154226.92697-.282392 1.38-.13008.46064-.262255.91639-.524428 1.3241-.264134.52795-.508614 1.06513-.785461 1.58668-.0398.0794-.277019.55447-.31936.63229-.215429.39594-.474504.76567-.706649 1.15153-.283184.47307-.54691.96055-.888717 1.39531-.428096.27227-.845518.5621-1.284288.81682-.03633.0211-.08641.0159-.126026.002-.223794-.0791-.0997-.40763-.06774-.55539.115901-.57097.208664-1.1478.261639-1.72817.03391-.7229.08316-1.44457.148249-2.1654.05469-.85691.100393-1.71497.191946-2.56894.106051-.94634.265391-1.88472.367969-2.83152.121622-.90925.264712-1.81537.378345-2.72569.04516-.47838.130855-.96009.08346-1.44144 0 0 1.250684-.63725 1.250684-.63725z" fill="#ffa5ff"/><path d="m57.397828 285.0648c-.449408.12268-.921057.16682-1.384483.20916-.603567.0408-1.066218-.23144-1.576509-.5063-.586904-.31399-.825968-.55488-1.121124-1.15117-.228843-.608-.30036-1.25994-.261795-1.90504.147339-.78627.417489-1.09169 1.071695-1.52238.658762-.36561 1.30579-.75322 1.976289-1.09684.133507-.0684.284332-.0964.429054-.13585.627248-.17119 1.277443-.24467 1.922021-.31476.465637-.0317.933148-.0943 1.400278-.052.131085.0118.484838.0676.615304.0875.614021.0894 1.142648.35888 1.640859.71457.550918.3751.883327.93611 1.136454 1.53744.314455.70579.423606 1.46873.495742 2.23089.02604.62922.103478 1.27287-.000013 1.89921-.02413.14602-.06416.28897-.09624.43346-.267872.89-.692261 1.71915-1.163513 2.51618-.390853.70975-.94905 1.28266-1.567876 1.79407-.371954.30345-.765082.57898-1.141531.87669 0 0-1.78448.71619-1.78448.71619.379331-.30732.777058-.58831 1.164476-.88503.629082-.49638 1.222307-1.03042 1.615009-1.74287.482137-.77827.915165-1.58558 1.190273-2.46339.08402-.34437.129151-.45872.148709-.81078.02696-.48515-.03847-.97531-.04267-1.46019-.0604-.74415-.157033-1.48829-.471379-2.17476-.251798-.56194-.56938-1.08941-1.09107-1.44107-.487828-.32475-1.008004-.55949-1.594612-.63978-.650912-.0893-1.30053-.0958-1.954845-.0209-.475482.0505-.94846.10483-1.414946.21459-.160954.0379-.320966.0806-.478285.13155-.146082.0473-.555543.25235-.430943.16264.398058-.28659.840137-.50645 1.260205-.75968-.619979.36166-.948153.62205-1.118841 1.35044-.07268.61193-.0067 1.23324.212522 1.81191.275344.55084.528944.75273 1.060796 1.05073.492533.27048.941123.46885 1.518267.40731.485841-.0511.964761-.13358 1.443183-.2285 0 0-1.605976 1.16681-1.605976 1.16681z" fill="#ffa5ff"/></g><path d="m66.76997 280.755c.568412-.39816.898844-.61087 1.448035-.76669.03841-.0109.07563-.0285.115393-.0321.09128-.008.182818.0215.269559.0423 1.156581-1.0317.544968.17336.405762.56594-.0099.0607-.04078.11604-.06117.17405-.09296.15292-.206085.31227-.362893.40761-.440688.26793-.926135.73791-1.491428.76249-.367966-.13437-.278618-.52793-.196812-.82746.08257-.23797.03531-.12407.140251-.34232l1.165483-.52233c-.122509.19885-.06903.0922-.157493.3213-.05444.16384-.210259.58006.08739.59592.40331-.0922 1.094094-.56257-.734595.48406-.04994.0286.09783-.061.143491-.096.140302-.10764.133946-.11646.241626-.25225.0257-.041.06001-.0778.07709-.12303.08271-.21929-.136208-.35823-.313372-.40693-.04036-.003-.08058-.012-.121096-.0109-.480879.0135-1.508984.82138.565729-.45924l-1.22095.48555z" fill="#ffa5ff" stroke-width=".972076"/><path d="m66.635078 284.35147c.568412-.39816.898844-.61087 1.448035-.76669.03841-.0109.07563-.0285.115393-.0321.09128-.008.182818.0215.269559.0423 1.156581-1.0317.544968.17336.405762.56594-.0099.0607-.04078.11604-.06117.17405-.09296.15292-.206085.31227-.362893.40761-.440688.26793-.926135.73791-1.491428.76249-.367966-.13437-.278618-.52793-.196812-.82746.08257-.23797.03531-.12407.140251-.34232l1.165483-.52233c-.122509.19885-.06903.0922-.157493.3213-.05444.16384-.210259.58006.08739.59592.40331-.0922 1.094094-.56257-.734595.48406-.04994.0286.09783-.061.143491-.096.140302-.10764.133946-.11646.241626-.25225.0257-.041.06001-.0778.07709-.12303.08271-.21929-.136208-.35823-.313372-.40693-.04036-.003-.08058-.012-.121096-.0109-.480879.0135-1.508984.82138.565729-.45924l-1.22095.48555z" fill="#ffa5ff" stroke-width=".972076"/><path d="m98.037051 283.51271c-.496967.96111-.82812 1.99922-1.167622 3.02379-.385781 1.00375-.682247 2.0344-.983967 3.06508-.241443.80388-.380508 1.63094-.445035 2.4664-.03982.5616-.02347.84736.309002 1.30685.367268.44746.789871.85776 1.291836 1.14931.663276.27601 1.389676.28129 2.093651.21485.454937-.0291.894574-.13646 1.326444-.27549 0 0-1.500837 1.15905-1.500837 1.15905-.44346.12499-.892029.22229-1.354301.24374-.734626.0351-1.496309.0112-2.175158-.30214-.509966-.32613-.946452-.75194-1.344144-1.20669-.101174-.14018-.205616-.26811-.273402-.42958-.133136-.31713-.107011-.67844-.07695-1.01075.08612-.85446.232806-1.70028.480853-2.52422.299477-1.0387.599194-2.07616 1.001827-3.08113.333047-1.00299.676314-2.00329 1.040963-2.99517 0 0 1.776836-.8039 1.776836-.8039z" fill="#ffa5ff" stroke-width="1.465"/><path d="m91.42777 287.71642c1.134523.0619 2.272096.0619 3.408087.0636 1.212154-.003 2.424234-.0186 3.636328-.0299.766032-.008 1.532065-.003 2.298085-.0122.26519-.0108.52856-.006.79294.0137 0 0-1.571886 1.12571-1.571886 1.12571-.254802-.0156-.508981-.0161-.764254-.0182-.754769-.009-1.509562-.004-2.264347-.0122-1.184626-.0114-2.369237-.0274-3.553925-.0299-1.19439.002-2.389936.005-3.583078.0636 0 0 1.60205-1.16396 1.60205-1.16396z" fill="#ffa5ff" stroke-width="1.465"/><path d="m103.46122 288.8861c-.01 1.27675-.001 2.55339.0184 3.8301.006.22876.0105.45758.0183.68629.006.18013.0112.36038.0235.54019.007.10073.016.20164.0341.30097.004.0241.0548.0551.0328.0658-1.85719.90333-1.83072 1.39399-1.72192.48101.22872-1.23527.8843-2.33798 1.52328-3.40103.10823-.1691.2023-.34814.32468-.50729.21579-.28065.57705-.62875.8791-.81505 1.23914-.76427 1.91208-1.1941 3.13378-1.60117.40589-.13087.82301-.2113 1.24275-.27992 0 0-1.51608 1.14001-1.51608 1.14001-.39776.0669-.79415.14129-1.17787.26975-.16867.0602-.34018.11294-.506.18059-.17624.0719-.67206.35116-.51923.23769.32303-.23984.67419-.44302 1.03514-.62074.1785-.0879-.3315.22153-.48396.34936-.44751.37522-.43966.4364-.7713.92153-.56266.89605-1.13513 1.84318-1.39078 2.8832-.0307.12483-.0383.25424-.0574.38136.008.9281.0783.30518-1.75615 1.28257-.0307.0163.0251-.0655.0297-.0999.0149-.11049.0233-.22188.0288-.33324.009-.18637.012-.37302.0151-.55959.004-.23261.004-.46526.005-.69789-.0102-1.23877-.002-2.48764-.18679-3.71529 0 0 1.74258-.91926 1.74258-.91926z" fill="#ffa5ff" stroke-width="1.465"/></g></g><path d="m922.42773 49.773437v1.835938h-3.16406v9.453125h-2.22656v-9.453125h-3.16406v-1.835938zm4.96094 0 2.67578 5 2.44141-5h3.35937v11.289063h-2.22656v-9.414063l-3.04687 5.878907h-1.07422l-3.24219-5.878907v9.414063h-2.20703v-11.289063z" fill="#370037" transform="matrix(.64442613 0 0 .64442613 -350.81715 90.258008)"/></svg>