<svg viewBox="0 0 8192 2048">
<defs>
<path id="e030" d="M 36 0 h -36 v -1000 h 36 v 1000 z"/>
<path id="e050" d="M 470 -943 c -61 0 -133 96 -133 252 c 0 32 2 66 6 92 c 2 13 6 14 13 8 c 23 -20 47 -43 63 -59 c 78 -78 111 -142 111 -211 c 0 -55 -27 -82 -60 -82 z M 430 -103 l 49 285 c 2 12 4 12 16 6 c 56 -28 94 -79 94 -142 c 0 -88 -67 -156 -148 -163 c -12 -1 -13 2 -11 14 z M 361 -262 l -21 -128 c -2 -11 -4 -12 -14 -4 c -47 38 -93 75 -153 142 c -83 94 -93 173 -93 232 c 0 139 113 236 288 236 c 20 0 40 -2 56 -5 c 15 -3 16 -3 14 -14 l -50 -298 c -2 -11 -4 -12 -20 -8 c -61 17 -100 60 -100 117 c 0 46 30 89 72 107 c 7 3 15 6 15 13 c 0 6 -4 11 -12 11 c -7 0 -19 -3 -27 -6 c -68 -23 -115 -87 -115 -177 c 0 -85 57 -164 145 -194 c 18 -6 18 -5 15 -24 z M 376 -415 l 25 145 c 3 18 3 18 29 18 c 147 0 241 113 241 241 c 0 113 -67 198 -168 238 c -14 6 -15 5 -13 17 c 11 62 29 157 29 214 c 0 170 -130 200 -197 200 c -151 0 -190 -98 -190 -163 c 0 -62 40 -115 107 -115 c 61 0 96 47 96 102 c 0 58 -36 85 -67 94 c -23 7 -32 10 -32 17 c 0 13 26 29 80 29 c 59 0 159 -18 159 -166 c 0 -47 -15 -134 -27 -201 c -2 -12 -4 -11 -15 -9 c -20 4 -46 6 -69 6 c -245 0 -364 -165 -364 -339 c 0 -107 43 -200 112 -286 c 52 -64 121 -125 185 -178 c 12 -10 11 -12 9 -24 c -7 -41 -14 -106 -14 -164 c 0 -104 24 -229 98 -311 c 20 -22 51 -48 65 -48 c 11 0 37 28 52 50 c 41 60 65 146 65 233 c 0 113 -50 232 -134 324 c -19 21 -40 42 -56 57 c -6 6 -8 7 -6 19 z"/>
<path id="e05c" d="M 21 -503 h 86 c 14 0 21 7 21 21 v 964 c 0 14 -7 21 -21 21 h -86 c -14 0 -21 -7 -21 -21 v -964 c 0 -14 7 -21 21 -21 z M 230 -482 v 438 c 0 8 5 7 9 6 c 26 -7 68 -33 89 -146 c 3 -16 9 -25 19 -25 c 11 0 16 10 21 27 c 13 44 36 93 107 93 c 65 0 83 -64 83 -195 s -23 -190 -106 -190 c -22 0 -42 3 -58 8 c -17 5 -27 12 -27 19 c 0 5 16 11 27 15 c 20 7 40 27 40 65 c 0 44 -29 69 -68 69 c -43 0 -77 -29 -77 -82 c 0 -63 55 -126 174 -126 c 164 0 236 115 236 219 c 0 138 -76 234 -209 234 c -29 0 -48 -5 -61 -9 c -10 -3 -20 -5 -29 1 c -14 9 -36 41 -36 61 s 22 52 36 61 c 9 6 19 4 29 1 c 13 -4 32 -9 61 -9 c 133 0 209 96 209 234 c 0 104 -72 219 -236 219 c -119 0 -174 -63 -174 -126 c 0 -53 34 -82 77 -82 c 39 0 68 25 68 69 c 0 38 -20 58 -40 65 c -11 4 -27 10 -27 15 c 0 7 10 14 27 19 c 16 5 36 8 58 8 c 83 0 106 -59 106 -190 s -18 -195 -83 -195 c -71 0 -94 49 -107 93 c -5 17 -10 27 -21 27 c -10 0 -16 -9 -19 -25 c -21 -113 -63 -139 -89 -146 c -4 -1 -9 -2 -9 6 v 438 c 0 14 -7 21 -21 21 h -1 c -14 0 -21 -7 -21 -21 v -964 c 0 -14 7 -21 21 -21 h 1 c 14 0 21 7 21 21 z"/>
<path id="e062" d="M 252 -262 c 173 0 279 116 279 290 c 0 131 -52 253 -139 347 c -106 114 -234 190 -367 255 c -6 3 -12 5 -17 5 c -9 0 -13 -6 -13 -12 c 0 -8 6 -13 15 -18 c 124 -71 227 -156 287 -249 c 62 -96 84 -216 84 -319 c 0 -157 -46 -261 -152 -261 c -102 0 -162 73 -162 113 c 0 10 3 18 16 18 s 23 -7 50 -7 c 49 0 96 40 96 104 c 0 62 -43 106 -106 106 c -81 0 -123 -69 -123 -149 c 0 -96 78 -223 252 -223 z M 630 71 c 31 0 54 23 54 54 s -23 54 -54 54 s -54 -23 -54 -54 s 23 -54 54 -54 z M 629 -180 c 31 0 55 24 55 55 s -24 55 -55 55 s -55 -24 -55 -55 s 24 -55 55 -55 z"/>
<path id="e06d" d="M 387 -711 h -154 v 418 h -60 v -418 h -155 v -53 h 369 v 53 z M 408 228 h -67 l -49 -141 h -181 l -50 141 h -64 l 168 -470 h 78 z M 276 36 l -73 -214 l -77 214 h 150 z M 378 613 c 0 78 -54 135 -139 135 h -212 v -471 h 191 c 89 0 139 51 139 120 c 0 47 -22 82 -65 102 c 60 23 86 58 86 114 z M 297 405 c 0 -48 -27 -75 -94 -75 h -116 v 150 h 116 c 67 0 94 -27 94 -75 z M 318 614 c 0 -46 -28 -81 -84 -81 h -147 v 162 h 147 c 56 0 84 -36 84 -81 z"/>
<path id="e06e" d="M 258 -469 h -103 v 280 h -40 v -280 h -104 v -35 h 247 v 35 z M 272 160 h -45 l -32 -95 h -122 l -33 95 h -43 l 113 -315 h 52 z M 184 32 l -49 -144 l -52 144 h 101 z M 252 418 c 0 52 -36 90 -93 90 h -142 v -315 h 128 c 60 0 93 34 93 80 c 0 32 -15 55 -43 69 c 40 15 57 38 57 76 z M 198 279 c 0 -32 -18 -51 -63 -51 h -78 v 101 h 78 c 45 0 63 -18 63 -50 z M 212 418 c 0 -30 -18 -54 -56 -54 h -99 v 108 h 99 c 38 0 56 -23 56 -54 z"/>
<path id="e07a" d="M 386 46 v -7 c -3 -55 -40 -87 -95 -87 c 14 74 18 125 28 184 c 47 -20 67 -44 67 -90 z M 61 5 v 6 c 4 114 112 138 183 138 c 19 0 33 -2 43 -6 l -34 -188 c -35 7 -71 23 -71 69 v 6 c 1 27 24 53 37 58 c 5 3 10 8 10 12 c 0 3 -3 6 -8 6 c -3 0 -8 -1 -14 -3 c -31 -10 -60 -43 -70 -87 c -3 -9 -4 -19 -4 -29 c 0 -59 46 -115 105 -132 l -12 -79 c -86 64 -165 123 -165 229 z M 303 -578 c -52 2 -77 76 -77 144 c 0 8 0 16 1 23 c 0 4 3 17 5 33 c 70 -54 98 -79 106 -133 c 1 -5 1 -10 1 -14 c 0 -36 -14 -53 -36 -53 z M 440 -1 v 10 c 0 73 -43 133 -116 160 c 7 46 21 93 21 143 c 0 103 -74 139 -120 142 c -5 0 -11 1 -15 1 c -108 0 -125 -75 -125 -112 c 0 -13 2 -23 3 -23 c 5 -41 41 -72 80 -72 c 10 0 19 2 29 7 c 27 11 39 37 39 65 v 5 c 0 39 -36 60 -63 68 c -6 3 -11 3 -17 4 c -3 2 -6 3 -6 6 c 0 2 2 4 6 7 c 14 10 33 13 55 13 h 13 c 8 0 88 -1 88 -108 c 0 -13 -4 -50 -7 -66 l -13 -71 c -14 0 -28 3 -48 3 c -107 0 -231 -50 -243 -209 c -1 -7 -1 -14 -1 -20 c 0 -126 108 -223 205 -305 l -8 -42 c -4 -23 -5 -45 -5 -66 c 0 -119 44 -218 106 -246 c 0 0 24 4 49 63 c 19 42 29 84 29 125 c 0 116 -32 199 -120 280 c 7 36 10 46 17 89 c 2 -1 6 -1 8 -1 h 7 c 84 0 146 66 152 150 z"/>
<path id="e07b" d="M 102 -317 v 634 c 0 8 -6 15 -15 15 h -72 c -8 0 -15 -7 -15 -15 v -634 c 0 -8 7 -15 15 -15 h 72 c 9 0 15 7 15 15 z M 395 -137 v -79 c 0 -41 -13 -90 -70 -90 c -15 0 -30 4 -43 17 c -2 1 -2 2 -2 3 c 0 4 10 6 12 8 c 6 5 36 21 36 44 c 0 26 -27 50 -55 50 c -29 0 -51 -30 -51 -58 c 0 -27 29 -90 125 -90 c 95 0 159 78 159 154 s -50 152 -146 152 c -32 0 -43 -19 -52 -19 c -8 0 -18 14 -24 23 c 0 2 -2 2 -3 4 c -4 9 -7 16 -7 18 c 0 7 5 13 8 21 c 6 10 16 25 26 25 c 9 0 20 -21 52 -21 c 96 0 146 77 146 154 c 0 75 -64 153 -159 153 c -96 0 -125 -64 -125 -91 s 22 -58 51 -58 c 28 0 55 24 55 50 c 0 27 -31 38 -38 45 c -2 2 -10 4 -10 8 c 0 1 1 2 3 4 c 6 6 15 15 42 15 c 57 0 70 -47 70 -89 v -78 c 0 -52 -2 -71 -46 -71 c -43 0 -60 19 -70 52 c -5 14 -10 19 -15 19 c -7 0 -13 -10 -15 -19 c -17 -79 -43 -83 -62 -85 v 284 c 0 8 -15 14 -23 14 s -14 -6 -14 -14 v -635 c 0 -9 6 -15 14 -15 s 23 6 23 15 v 283 c 19 -2 45 -6 62 -85 c 2 -9 8 -19 15 -19 c 5 0 10 5 15 19 c 10 33 27 51 70 51 c 44 0 46 -18 46 -69 z"/>
<path id="e07c" d="M 162 -170 h 4 s 68 4 122 48 c 33 27 60 71 62 140 v 4 c 0 35 -10 76 -28 117 c -23 54 -60 109 -107 156 c -50 50 -140 119 -217 119 c -4 0 -13 -6 -13 -11 c 0 -3 3 -12 13 -18 c 34 -19 69 -34 100 -58 c 56 -43 90 -86 113 -153 c 15 -46 23 -97 23 -146 c 0 -12 0 -25 -2 -37 c 0 -5 -1 -7 -1 -8 c -4 -34 -7 -65 -31 -93 c -15 -16 -32 -25 -53 -25 c 0 0 -4 -1 -10 -1 c -18 0 -59 6 -82 59 c 0 0 -1 2 -1 4 c 0 6 2 14 16 14 h 19 c 28 0 80 10 80 69 c 0 40 -41 84 -81 84 h -4 c -38 0 -76 -31 -83 -91 c -1 -3 -1 -6 -1 -9 c 0 -61 50 -164 162 -164 z M 418 41 c 25 0 45 20 45 44 s -20 44 -45 44 c -23 0 -43 -20 -43 -44 s 20 -44 43 -44 z M 418 -127 c 24 0 44 19 44 43 c 0 25 -20 45 -44 45 c -25 0 -44 -20 -44 -45 c 0 -24 19 -43 44 -43 z"/>
<path id="e080" d="M 450 0 c 0 138 -96 250 -215 250 s -215 -112 -215 -250 c 0 -139 96 -251 215 -251 s 215 112 215 251 z M 235 -220 c -42 0 -75 95 -75 213 c 0 117 33 212 75 212 c 41 0 75 -95 75 -212 c 0 -118 -34 -213 -75 -213 z"/>
<path id="e081" d="M 24 -13 l 96 -219 c 4 -9 8 -19 18 -19 c 1 0 3 1 5 1 c 15 2 33 3 52 3 c 13 0 38 -4 52 -4 c 14 1 20 7 20 23 v 412 c 0 17 18 35 32 35 c 15 0 15 15 15 15 s 0 16 -16 16 h -213 c -13 0 -22 -5 -22 -16 c 0 -12 10 -15 17 -15 c 21 0 44 -15 44 -38 v -258 c 0 -6 -2 -14 -6 -14 c -2 0 -6 3 -10 10 c -11 19 -54 88 -54 88 s -4 9 -14 9 c -1 0 -5 -1 -9 -2 c -8 -3 -11 -9 -11 -14 c 0 -7 4 -13 4 -13 z"/>
<path id="e082" d="M 421 91 c -16 155 -93 159 -136 159 c -89 0 -104 -54 -144 -54 c -59 0 -71 61 -93 61 c -2 0 -5 0 -8 -2 c -11 -7 -18 -20 -18 -31 c 0 -2 1 -4 1 -6 c 17 -63 56 -112 111 -147 c 49 -30 77 -54 113 -102 c 22 -29 34 -64 34 -102 c 0 -29 -1 -96 -90 -96 c -59 0 -77 24 -79 38 c 0 20 69 23 69 83 c 0 25 -9 88 -70 88 c -36 0 -67 -24 -82 -55 c -6 -15 -9 -29 -9 -43 c 0 -27 11 -52 28 -73 c 24 -28 59 -49 94 -56 c 26 -6 60 -7 87 -7 c 22 0 100 6 151 49 c 26 22 46 56 46 103 c 0 44 -19 73 -43 92 c -33 27 -75 35 -90 39 c -22 6 -107 36 -129 72 c 11 -4 24 -6 37 -6 c 41 0 88 16 108 24 c 10 5 17 6 30 11 c 7 2 12 3 17 3 c 21 0 29 -19 39 -43 c 0 -1 1 -2 1 -3 c 2 -6 5 -10 13 -10 c 7 0 12 2 12 14 z"/>
<path id="e083" d="M 213 -248 c 42 3 167 30 167 122 c 0 23 -6 46 -22 64 c -11 13 -24 20 -39 27 c -9 5 -20 6 -31 9 c -3 1 -4 5 -4 9 c 0 2 0 3 1 5 c 2 4 5 4 10 5 l 33 9 l 21 12 c 10 6 18 13 24 21 c 8 9 15 19 19 29 c 6 13 8 27 9 41 v 7 c 0 88 -102 139 -201 139 h -9 c -98 -2 -169 -32 -171 -110 c 0 -22 5 -46 22 -61 c 12 -13 31 -23 48 -26 c 4 -1 7 -1 11 -1 c 27 0 56 16 67 41 c 4 10 5 21 5 31 c -1 29 -23 44 -23 66 v 5 c 1 15 20 15 28 16 c 1 0 5 1 9 1 c 22 0 76 -12 76 -118 c 0 -13 -9 -91 -124 -91 c -8 0 -25 0 -25 -12 c 0 -11 14 -16 24 -17 c 63 -3 122 -32 122 -106 v -7 c 0 -24 -8 -77 -93 -77 c -9 0 -40 8 -42 25 v 4 c 0 14 15 12 20 14 s 30 4 33 41 v 8 c 0 33 -22 65 -66 65 h -5 c -62 -4 -81 -48 -81 -81 c 0 -53 86 -110 172 -110 c 5 0 10 1 15 1 z"/>
<path id="e084" d="M 362 74 h 73 c 11 0 15 7 15 19 s -5 19 -15 19 h -73 v 59 c 0 32 21 38 31 38 s 22 6 22 20 s -10 21 -20 21 h -213 c -15 0 -19 -11 -19 -21 s 7 -19 23 -19 c 18 0 40 -8 40 -35 v -63 h -186 c -12 0 -20 -7 -20 -17 c 0 -3 1 -7 3 -11 c 0 -1 1 -2 1 -3 l 6 -8 c 30 -42 128 -181 128 -305 c 0 -16 14 -19 23 -19 c 8 0 53 2 71 2 s 59 -2 68 -2 c 8 0 15 6 15 14 c 0 2 -1 3 -1 5 c -3 11 -163 238 -243 306 h 135 v -84 c 0 -12 5 -18 9 -23 l 95 -115 c 6 -7 11 -9 20 -9 c 11 0 12 9 12 17 v 214 z"/>
<path id="e085" d="M 76 -59 v 4 c 0 3 0 7 4 7 c 1 0 3 0 5 -1 c 32 -19 75 -29 133 -29 c 91 0 165 74 165 165 c 0 90 -66 164 -186 164 c -123 0 -177 -41 -177 -124 c 0 -6 0 -12 1 -18 c 3 -35 25 -74 79 -74 c 43 0 78 34 78 78 c 0 28 -15 53 -38 67 c -5 3 -12 7 -12 14 c 1 7 7 11 12 14 c 7 3 15 3 23 3 c 26 0 85 -14 85 -124 c 0 -111 -69 -130 -103 -130 s -58 23 -68 33 c -11 11 -12 20 -22 20 s -20 -2 -20 -15 v -2 l 11 -222 c 1 -8 6 -17 24 -17 c 17 2 103 10 135 10 s 110 -9 123 -9 c 11 0 14 8 14 21 c 0 16 -5 96 -144 96 c -41 0 -88 -7 -98 -9 h -4 c -9 0 -14 5 -15 13 c -1 9 -5 65 -5 65 z"/>
<path id="e086" d="M 260 -100 c -1 -1 -3 -2 -4 -4 c -10 -11 -15 -26 -15 -41 c 0 -10 2 -20 7 -29 c 6 -12 25 -24 25 -38 c 0 -10 -13 -15 -33 -15 c -21 0 -80 5 -83 190 c 0 16 3 24 9 24 c 2 0 4 0 6 -2 c 26 -23 59 -35 91 -35 c 31 0 62 11 89 31 c 32 24 62 58 62 114 c 0 45 -23 90 -58 118 c -36 29 -86 36 -131 36 c -25 0 -55 -3 -80 -14 c -39 -17 -73 -58 -94 -96 c -22 -40 -30 -92 -31 -138 v -4 c 0 -47 17 -100 39 -142 c 36 -68 107 -105 183 -106 c 26 0 55 3 79 13 c 30 11 58 35 63 68 c 1 4 1 7 1 11 c 0 32 -24 64 -55 72 c -8 2 -17 4 -25 4 c -16 0 -33 -5 -45 -17 z M 222 -2 c -32 0 -58 50 -58 112 s 26 112 58 112 s 59 -50 59 -112 s -27 -112 -59 -112 z"/>
<path id="e087" d="M 421 -204 v 4 c 0 103 -119 246 -119 413 c 0 29 -6 37 -16 37 s -57 -9 -82 -9 s -47 9 -65 9 c -19 0 -19 -10 -19 -31 c 0 -39 31 -97 69 -141 c 60 -71 137 -127 137 -155 c -1 -6 -3 -9 -7 -9 c -2 0 -6 2 -9 4 c -8 6 -22 21 -50 21 c -58 0 -106 -75 -146 -75 c -45 0 -58 58 -68 83 c -4 11 -7 20 -15 20 c -10 0 -11 -16 -11 -16 v -165 c 0 -9 5 -12 10 -12 s 10 3 12 7 c 5 10 18 24 26 24 c 7 -1 13 -5 27 -18 s 29 -36 87 -36 c 83 0 130 85 155 85 s 39 -57 46 -69 c 4 -7 20 -11 21 -11 c 17 0 17 13 17 40 z"/>
<path id="e088" d="M 334 -36 c 47 24 82 57 82 117 c 0 135 -107 178 -207 178 c -99 0 -189 -40 -189 -127 c 0 -63 40 -96 92 -121 c -48 -27 -87 -64 -87 -133 c 0 -84 79 -137 195 -137 c 27 0 174 15 174 117 c 0 50 -24 83 -60 106 z M 205 226 c 67 0 98 -34 98 -74 c 0 -66 -74 -87 -147 -119 c -44 17 -79 54 -79 94 c 0 65 61 99 128 99 z M 282 -59 c 33 -19 53 -45 53 -85 c 0 -70 -85 -86 -117 -86 c -44 0 -101 21 -101 63 c 0 63 85 80 165 108 z"/>
<path id="e089" d="M 174 98 c 1 1 3 2 4 4 c 10 11 15 26 15 41 c 0 10 -2 20 -7 29 c -6 12 -25 24 -25 38 c 0 10 13 15 33 15 c 21 0 80 -5 83 -190 c 0 -16 -3 -24 -9 -24 c -2 0 -4 0 -6 2 c -26 23 -59 35 -91 35 c -31 0 -62 -11 -89 -31 c -32 -24 -62 -58 -62 -114 c 0 -45 23 -90 58 -118 c 36 -29 86 -36 131 -36 c 25 0 55 3 80 14 c 39 17 73 58 94 96 c 22 40 30 92 31 138 v 4 c 0 47 -17 100 -39 142 c -36 68 -107 105 -183 106 c -26 0 -55 -3 -79 -13 c -30 -11 -58 -35 -63 -68 c -1 -4 -1 -7 -1 -11 c 0 -32 24 -64 55 -72 c 8 -2 17 -4 25 -4 c 16 0 33 5 45 17 z M 212 0 c 32 0 58 -50 58 -112 s -26 -112 -58 -112 s -59 50 -59 112 s 27 112 59 112 z"/>
<path id="e0a2" d="M 216 -125 c 93 0 206 52 206 123 c 0 70 -52 127 -216 127 c -149 0 -206 -60 -206 -127 c 0 -68 83 -123 216 -123 z M 111 -63 c -2 8 -3 16 -3 24 c 0 32 15 66 35 89 c 6 8 13 15 21 22 c 14 12 30 21 47 26 c 9 3 17 4 26 4 c 10 0 21 -1 31 -4 c 25 -6 39 -23 44 -48 c 1 -6 2 -12 2 -19 c 0 -60 -55 -134 -124 -134 c -31 0 -68 5 -79 40 z"/>
<path id="e0a3" d="M 97 125 c -55 0 -97 -30 -97 -83 c 0 -52 47 -167 196 -167 c 58 0 99 32 99 83 c 0 33 -33 167 -198 167 z M 173 46 c 70 -46 91 -70 91 -90 c 0 -7 -3 -13 -6 -19 c -7 -12 -18 -21 -37 -21 c -20 0 -51 10 -101 39 c -69 40 -91 67 -91 89 c 0 7 3 14 6 20 c 7 12 19 23 40 23 c 22 0 53 -11 98 -41 z"/>
<path id="e0a4" d="M 97 125 c -54 0 -97 -31 -97 -83 c 0 -86 88 -167 198 -167 c 57 0 97 32 97 83 c 0 85 -109 167 -198 167 z"/>
<path id="e210" d="M 15 0 h -30 v -875 h 30 v 875 z"/>
<path id="e215" d="M 198 -581 h -183 v 581 h -30 v -581 h -183 c 45 -52 110 -86 183 -90 v -204 h 30 v 204 c 73 4 138 38 183 90 z"/>
<path id="e216" d="M 197 -667 v 86 l -183 10 v 571 h -30 v -570 l -182 10 v -130 l 182 11 v -196 h 30 v 197 z"/>
<path id="e217" d="M 156 -565 l -141 85 v 49 h 141 v 49 h -141 v 382 h -30 v -382 h -141 v -49 l 141 -87 v -47 h -141 v -49 h 141 v -261 h 30 v 261 h 141 v 49 z M 15 -565 v 28 l 45 -28 h -45 z M -15 -431 v -30 l -50 30 h 50 z"/>
<path id="e218" d="M 200 -637 c 9 0 15 7 15 15 s -6 15 -15 15 h -43 c -7 75 -67 135 -142 142 v 465 h -30 v -465 c -75 -7 -134 -67 -141 -142 h -44 c -8 0 -15 -7 -15 -15 s 7 -15 15 -15 h 44 c 7 -75 66 -135 141 -142 v -96 h 30 v 96 c 75 7 135 67 142 142 h 43 z M 127 -637 c -7 -58 -53 -105 -112 -112 v 112 h 112 z M -15 -749 c -58 7 -104 54 -111 112 h 111 v -112 z M -126 -607 c 7 58 53 105 111 111 v -111 h -111 z M 15 -496 c 59 -6 105 -53 112 -111 h -112 v 111 z"/>
<path id="e21e" d="M 67 -471 h 10 c 17 0 35 2 40 7 c 4 5 7 23 7 40 c 0 16 -2 31 -7 36 c -7 7 -22 10 -38 10 c -17 0 -33 -4 -40 -10 c -4 -3 -5 -20 -5 -38 c -3 -9 -10 -25 -19 -35 v 461 h -30 v -462 c -7 9 -13 23 -16 32 c -1 1 -2 3 -2 4 c 0 16 -2 33 -8 38 c -6 7 -22 10 -37 10 c -17 0 -33 -4 -40 -10 c -3 -2 -5 -20 -5 -38 s 2 -35 5 -38 c 6 -5 25 -7 43 -7 h 10 c 14 -5 46 -21 46 -34 c 0 -7 -36 -27 -47 -33 c -3 0 -6 1 -10 1 c -17 0 -35 -4 -42 -10 c -3 -3 -5 -21 -5 -39 s 2 -35 5 -37 c 6 -5 24 -7 41 -7 c 16 0 32 2 36 7 c 5 4 8 22 8 39 c 2 8 9 25 18 36 v -327 h 30 v 327 c 8 -12 15 -29 19 -36 c 0 -18 1 -36 5 -39 c 5 -5 23 -7 41 -7 c 17 0 33 2 37 7 s 7 23 7 40 c 0 16 -2 31 -7 36 c -7 6 -22 10 -38 10 c -4 0 -8 -1 -12 -1 c -14 5 -47 20 -47 34 c 0 7 36 27 47 33 z"/>
<path id="e21f" d="M 165 -515 c 7 0 13 4 15 10 c 1 2 1 4 1 6 c 0 4 -1 8 -4 11 l -162 167 v 321 h -30 v -291 l -139 143 c -4 3 -8 5 -12 5 s -8 -1 -11 -4 s -5 -8 -5 -12 s 2 -8 5 -11 l 162 -166 v -147 h -151 c -6 0 -12 -4 -15 -10 c -1 -2 -1 -4 -1 -6 c 0 -4 2 -8 5 -11 l 162 -166 v -199 h 30 v 168 l 139 -143 c 3 -3 7 -5 11 -5 s 8 2 11 5 c 4 3 5 7 5 11 s -1 8 -4 11 l -162 167 v 146 h 150 z M -128 -515 h 113 v -116 z M 15 -367 l 112 -116 h -112 v 116 z"/>
<path id="e240" d="M 238 790 c -5 17 -22 23 -28 19 s -16 -13 -16 -29 c 0 -4 1 -9 3 -15 c 17 -45 24 -92 24 -137 c 0 -59 -9 -116 -24 -150 c -36 -85 -131 -221 -197 -233 v -239 c 0 -12 4 -15 10 -15 c 19 0 27 6 30 22 c 16 96 58 182 109 261 c 63 100 115 218 115 343 c 0 78 -26 173 -26 173 z"/>
<path id="e241" d="M 240 -760 c -15 -43 30 -65 38 -33 s 28 103 28 181 c 0 125 -61 244 -124 343 c -51 79 -125 166 -142 261 c -2 16 -10 22 -29 22 c -6 0 -11 -3 -11 -15 v -235 c 134 -45 184 -126 221 -210 c 15 -34 40 -118 40 -177 c 0 -45 -7 -95 -21 -137 z"/>
<path id="e242" d="M 272 796 c -6 13 -13 17 -20 17 c -3 0 -5 -1 -8 -2 c -7 -2 -14 -10 -14 -24 c 0 -3 0 -5 1 -9 c 5 -30 8 -60 8 -89 c 0 -52 -9 -101 -32 -149 c -69 -140 -140 -142 -202 -144 h -5 v -397 s 11 -1 17 -1 s 18 2 20 13 c 17 106 73 122 127 180 c 72 78 98 106 108 174 c 2 12 3 23 3 36 c 0 61 -22 121 -25 127 c -1 3 -1 5 -1 7 c 0 4 1 6 1 9 c 18 37 29 78 29 120 v 22 c 0 48 -3 105 -7 110 z M 209 459 c 2 3 4 4 7 4 c 5 0 12 -3 13 -6 c 5 -8 5 -18 7 -26 c 1 -7 1 -13 1 -20 c 0 -32 -9 -63 -27 -89 c -33 -49 -87 -105 -148 -105 h -8 c -8 0 -14 6 -14 10 c 0 1 0 2 1 3 c 21 82 67 106 114 160 c 21 24 38 44 54 69 z"/>
<path id="e243" d="M 240 -786 c -3 -17 5 -25 17 -26 c 12 0 19 -1 24 22 c 16 80 15 178 -21 253 c 0 3 -1 5 -1 9 c 0 3 0 5 1 7 c 3 6 25 66 25 127 c 0 13 -1 25 -3 36 c -24 157 -221 200 -245 354 c -2 11 -14 13 -20 13 s -17 -1 -17 -1 v -396 h 5 c 62 -2 143 -5 212 -145 c 38 -78 38 -169 23 -253 z M 226 -456 c -3 0 -5 1 -7 4 c -16 26 -33 46 -54 69 c -47 55 -103 78 -124 160 c -1 1 -1 2 -1 3 c 0 5 6 10 14 10 h 8 c 61 0 125 -56 158 -105 c 18 -26 27 -56 27 -89 c 0 -6 0 -13 -1 -20 c -2 -8 -2 -18 -7 -25 c -1 -4 -8 -7 -13 -7 z"/>
<path id="e244" d="M 260 673 c 0 9 1 18 1 28 c 0 43 -4 89 -7 95 c -7 11 -14 16 -20 16 c -2 0 -4 -1 -6 -2 c -7 -3 -13 -12 -13 -24 c 0 -2 1 -4 1 -7 c 5 -29 8 -57 8 -85 c 0 -48 -9 -93 -31 -137 c -64 -130 -130 -132 -188 -134 h -5 v -560 s 6 -12 12 -12 s 19 10 20 19 c 17 100 71 116 121 170 c 67 73 90 100 101 161 c 2 9 2 18 2 28 c 0 39 -11 80 -20 106 c 8 17 14 35 18 58 c 2 12 3 23 3 35 c 0 57 -21 112 -23 119 c -1 2 -1 4 -1 6 c 0 3 0 5 1 7 c 15 36 24 74 26 113 z M 208 181 c -55 -93 -114 -117 -169 -117 c 16 97 65 114 114 168 c 23 25 41 44 55 62 c 5 -17 10 -34 12 -44 c 1 -7 3 -13 3 -21 c 0 -13 -4 -28 -15 -48 z M 219 456 c 1 -8 2 -16 2 -24 c 0 -29 -9 -56 -25 -80 c -31 -46 -82 -97 -145 -97 c -6 1 -13 12 -13 13 c 20 77 64 98 107 149 l 5 5 c 17 20 31 37 46 59 c 1 3 4 4 7 4 c 5 0 10 -3 11 -6 c 3 -7 3 -15 5 -23 z"/>
<path id="e245" d="M 273 -676 v 11 c -4 64 -9 75 -22 100 l -4 7 c -2 3 -3 5 -3 7 c 0 3 3 6 3 9 c 4 10 20 53 20 105 c 0 13 -1 26 -3 39 c -4 24 -10 44 -20 62 c 9 27 22 71 22 114 c 0 10 0 20 -2 29 c -11 64 -35 92 -105 168 c -52 57 -109 73 -126 177 c -1 9 -14 20 -21 20 c -6 0 -12 -13 -12 -13 v -589 c 61 -2 125 -4 201 -140 c 23 -41 31 -70 31 -98 c 0 -34 -12 -65 -20 -110 c 0 -3 -1 -5 -1 -7 c 0 -13 7 -23 14 -26 c 2 -1 4 -1 6 -1 c 7 0 14 4 21 16 c 4 7 21 70 21 120 z M 39 -268 c 0 5 4 13 13 13 h 5 c 62 0 115 -53 146 -101 c 17 -25 27 -54 27 -84 c 0 -8 -1 -17 -2 -25 c -2 -8 -2 -16 -5 -23 c -1 -3 -7 -6 -12 -6 c -3 0 -6 1 -8 4 c -16 25 -32 44 -52 67 c -45 53 -91 75 -112 155 z M 229 -243 c -3 -11 -8 -32 -14 -51 c -14 18 -32 38 -56 64 c -52 57 -103 73 -120 177 c 0 1 0 2 2 3 c 57 0 118 -26 175 -122 c 12 -21 16 -37 16 -50 c 0 -8 -2 -14 -3 -21 z"/>
<path id="e246" d="M 260 673 c 0 9 1 18 1 28 c 0 43 -4 89 -7 95 c -7 11 -14 16 -20 16 c -2 0 -4 -1 -6 -2 c -7 -3 -13 -12 -13 -24 c 0 -2 1 -4 1 -7 c 5 -29 8 -57 8 -85 c 0 -48 -9 -93 -31 -137 c -64 -130 -130 -132 -188 -134 h -5 v -758 s 6 -12 12 -12 s 19 10 20 19 c 17 100 71 116 121 170 c 67 73 90 100 101 161 c 1 9 2 18 2 27 c 0 42 -13 86 -22 111 c 10 18 16 37 20 60 c 2 9 2 18 2 28 c 0 39 -11 80 -20 106 c 8 17 14 35 18 58 c 2 12 3 23 3 35 c 0 57 -21 112 -23 119 c -1 2 -1 4 -1 6 c 0 3 0 5 1 7 c 15 36 24 74 26 113 z M 208 -17 c -55 -92 -112 -117 -169 -117 c 1 1 1 3 1 4 c 17 100 63 116 113 170 c 23 25 40 44 54 61 l 13 -49 c 1 -7 3 -13 3 -21 c 0 -13 -4 -28 -15 -48 z M 208 181 c -55 -93 -114 -117 -169 -117 c 16 97 65 114 114 168 c 23 25 41 44 55 62 c 5 -17 10 -34 12 -44 c 1 -7 3 -13 3 -21 c 0 -13 -4 -28 -15 -48 z M 219 456 c 1 -8 2 -16 2 -24 c 0 -29 -9 -56 -25 -80 c -31 -46 -82 -97 -145 -97 c -6 1 -13 12 -13 13 c 20 77 64 98 107 149 l 5 5 c 17 20 31 37 46 59 c 1 3 4 4 7 4 c 5 0 10 -3 11 -6 c 3 -7 3 -15 5 -23 z"/>
<path id="e247" d="M 273 -676 v 11 c -4 64 -9 75 -22 100 l -4 7 c -2 3 -3 5 -3 7 c 0 3 3 6 3 9 c 4 10 20 53 20 105 c 0 13 -1 26 -3 39 c -4 24 -10 44 -20 62 c 9 27 22 71 22 114 c 0 10 0 20 -2 29 c -4 24 -10 43 -20 62 c 10 26 23 70 23 112 c 0 10 -1 20 -3 30 c -11 64 -35 92 -105 168 c -52 57 -109 73 -126 177 c -1 9 -14 20 -21 20 c -6 0 -12 -13 -12 -13 v -793 c 61 -2 125 -4 201 -140 c 23 -41 31 -70 31 -98 c 0 -34 -12 -65 -20 -110 c 0 -3 -1 -5 -1 -7 c 0 -13 7 -23 14 -26 c 2 -1 4 -1 6 -1 c 7 0 14 4 21 16 c 4 7 21 70 21 120 z M 39 -268 c 0 5 4 13 13 13 h 5 c 62 0 115 -53 146 -101 c 17 -25 27 -54 27 -84 c 0 -8 -1 -17 -2 -25 c -2 -8 -2 -16 -5 -23 c -1 -3 -7 -6 -12 -6 c -3 0 -6 1 -8 4 c -16 25 -32 44 -52 67 c -45 53 -91 75 -112 155 z M 229 -39 l -13 -50 c -15 18 -33 38 -57 64 c -58 63 -107 85 -120 179 c 56 0 120 -26 177 -122 c 12 -21 16 -37 16 -50 c 0 -8 -2 -14 -3 -21 z M 229 -243 c -3 -11 -8 -32 -14 -51 c -14 18 -32 38 -56 64 c -52 57 -103 73 -120 177 c 0 1 0 2 2 3 c 57 0 118 -26 175 -122 c 12 -21 16 -37 16 -50 c 0 -8 -2 -14 -3 -21 z"/>
<path id="e248" d="M 260 673 c 0 9 1 18 1 28 c 0 43 -4 89 -7 95 c -7 11 -14 16 -20 16 c -2 0 -4 -1 -6 -2 c -7 -3 -13 -12 -13 -24 c 0 -2 1 -4 1 -7 c 5 -29 8 -57 8 -85 c 0 -48 -9 -93 -31 -137 c -64 -130 -130 -132 -188 -134 h -5 v -944 s 6 -12 12 -12 s 19 10 20 19 c 17 100 71 116 121 170 c 67 73 90 100 101 161 c 2 9 2 19 2 29 c 0 38 -10 77 -19 102 c 8 17 13 34 17 55 c 1 9 2 18 2 27 c 0 42 -13 86 -22 111 c 10 18 16 37 20 60 c 2 9 2 18 2 28 c 0 39 -11 80 -20 106 c 8 17 14 35 18 58 c 2 12 3 23 3 35 c 0 57 -21 112 -23 119 c -1 2 -1 4 -1 6 c 0 3 0 5 1 7 c 15 36 24 74 26 113 z M 208 -203 c -55 -93 -115 -117 -170 -117 c 17 93 67 109 115 162 c 24 26 42 46 56 64 c 5 -16 9 -31 11 -40 c 1 -7 3 -13 3 -21 c 0 -13 -4 -28 -15 -48 z M 208 -17 c -55 -92 -113 -117 -170 -117 c 1 1 1 3 1 4 c 17 100 64 116 114 170 c 23 25 40 44 54 61 l 13 -49 c 1 -7 3 -13 3 -21 c 0 -13 -4 -28 -15 -48 z M 208 181 c -55 -93 -114 -117 -169 -117 c 16 97 65 114 114 168 c 23 25 41 44 55 62 c 5 -17 10 -34 12 -44 c 1 -7 3 -13 3 -21 c 0 -13 -4 -28 -15 -48 z M 219 456 c 1 -8 2 -16 2 -24 c 0 -29 -9 -56 -25 -80 c -31 -46 -82 -97 -145 -97 c -6 1 -13 12 -13 13 c 20 77 64 98 107 149 l 5 5 c 17 20 31 37 46 59 c 1 3 4 4 7 4 c 5 0 10 -3 11 -6 c 3 -7 3 -15 5 -23 z"/>
<path id="e249" d="M 273 -676 v 11 c -4 64 -9 75 -22 100 l -4 7 c -2 3 -3 5 -3 7 c 0 3 3 6 3 9 c 4 10 20 53 20 105 c 0 13 -1 26 -3 39 c -4 24 -10 44 -20 62 c 9 27 22 71 22 114 c 0 10 0 20 -2 29 c -4 24 -10 43 -20 62 c 10 26 23 70 23 112 c 0 10 -1 20 -3 30 c -4 24 -10 43 -20 62 c 10 26 23 70 23 112 c 0 10 -1 20 -3 30 c -11 64 -35 92 -105 168 c -52 57 -109 73 -126 177 c -1 9 -14 20 -21 20 c -6 0 -12 -13 -12 -13 v -997 c 61 -2 125 -4 201 -140 c 23 -41 31 -70 31 -98 c 0 -34 -12 -65 -20 -110 c 0 -3 -1 -5 -1 -7 c 0 -13 7 -23 14 -26 c 2 -1 4 -1 6 -1 c 7 0 14 4 21 16 c 4 7 21 70 21 120 z M 39 -268 c 0 5 4 13 13 13 h 5 c 62 0 115 -53 146 -101 c 17 -25 27 -54 27 -84 c 0 -8 -1 -17 -2 -25 c -2 -8 -2 -16 -5 -23 c -1 -3 -7 -6 -12 -6 c -3 0 -6 1 -8 4 c -16 25 -32 44 -52 67 c -45 53 -91 75 -112 155 z M 229 165 l -13 -50 c -15 18 -33 38 -57 64 c -58 63 -107 85 -120 179 c 56 0 120 -26 177 -122 c 12 -21 16 -37 16 -50 c 0 -8 -2 -14 -3 -21 z M 229 -39 l -13 -50 c -15 18 -33 38 -57 64 c -58 63 -107 85 -120 179 c 56 0 120 -26 177 -122 c 12 -21 16 -37 16 -50 c 0 -8 -2 -14 -3 -21 z M 229 -243 c -3 -11 -8 -32 -14 -51 c -14 18 -32 38 -56 64 c -52 57 -103 73 -120 177 c 0 1 0 2 2 3 c 57 0 118 -26 175 -122 c 12 -21 16 -37 16 -50 c 0 -8 -2 -14 -3 -21 z"/>
</defs>
<path d="M96 484h8000v32h-8000v-32z"/>
<path d="M96 734h8000v32h-8000v-32z"/>
<path d="M96 984h8000v32h-8000v-32z"/>
<path d="M96 1234h8000v32h-8000v-32z"/>
<path d="M96 1484h8000v32h-8000v-32z"/>
<use x="96" y="1000" xlink:href="#e05c"/>
<use x="996" y="750" xlink:href="#e083"/>
<use x="972" y="1250" xlink:href="#e084"/>
<use x="1641" y="625" xlink:href="#e0a4"/>
<path d="M1671 1520c-1 14-29 14-30 0v-855l30 50v855z"/>
<use x="2141" y="1375" xlink:href="#e0a4"/>
<path d="M2436 480c-1 -14-29-14-30 0v805l30 50v-805z"/>
<use x="2641" y="1000" xlink:href="#e0a3"/>
<path d="M2671 1895c-1 14-29 14-30 0v-855l30 50v855z"/>
<use x="3641" y="1500" xlink:href="#e030"/>
<use x="3841" y="1000" xlink:href="#e0a3"/>
<path d="M4136 105c-1 -14-29-14-30 0v805l30 50v-805z"/>
</svg>